<svg width="1920" height="1040" viewBox="0 0 1920 1040" fill="none" xmlns="http://www.w3.org/2000/svg">
<g clip-path="url(#clip0_798_3404)">
<rect width="1920" height="1040" fill="#0C4480"/>
<path d="M1672.45 487.916C1620.14 452.725 1564.03 418.545 1503.24 384.788C1404.59 330.006 1306.51 283.263 1211.66 238.058C1013.42 143.575 826.184 54.3336 692.991 -84.0528C654.88 -123.655 620.108 -158.833 580.602 -188.259C539.694 -218.735 494.877 -241.929 439.545 -261.242C324.841 -301.287 149.4 -330.677 -186.21 -366.062L-186.307 -365.554C463.062 -297.077 531.879 -250.605 692.499 -83.7294C753.342 -20.5177 827.664 35.7445 926.392 93.3212C1014.26 144.572 1109.99 190.191 1211.34 238.495C1361.76 310.186 1520.11 385.665 1673.58 488.91C1910.88 648.537 2136.62 874.561 2303.99 1255.9L2304.57 1255.7C2271.12 1179.48 2233.91 1106.59 2193.98 1039.03C2156.13 975.005 2114.65 913.784 2070.7 857.056C1990.18 753.143 1900.51 662.172 1796.59 578.933C1757.53 547.649 1716.32 517.429 1672.45 487.916Z" fill="white"/>
<path d="M1677.54 482.501C1624.5 446.825 1567.34 412.646 1505.06 379.325C1407.71 327.241 1310.43 283.698 1216.35 241.583C1019.36 153.406 833.28 70.1175 700.863 -70.8013C661.463 -112.94 627.437 -149.33 589.217 -180.321C547.839 -213.867 505.214 -238.31 450.991 -259.566C335.323 -304.919 156.447 -337.906 -166.413 -373.424L-166.531 -372.875C484.521 -301.255 538.897 -243.099 700.321 -70.4489C760.802 -6.08779 834.744 49.7231 933.022 105.196C1020.43 154.532 1115.43 197.052 1216.01 242.076C1594.64 411.561 2023.8 603.656 2278.52 1262.22L2279.16 1262.03C2248.24 1182.09 2213.45 1106.03 2175.75 1035.95C2140.01 969.519 2100.54 906.394 2058.43 848.325C1981.27 741.905 1894.47 650.155 1793.08 567.829C1756.72 538.308 1718.35 509.965 1677.53 482.506L1677.54 482.501Z" fill="url(#paint0_linear_798_3404)"/>
<path d="M1682 476.525C1628.74 440.697 1571.04 406.879 1507.85 374.382C1411.93 325.05 1315.54 284.758 1222.33 245.789C1026.1 163.749 840.745 86.2598 709.206 -57.7232C704.582 -62.7871 700.049 -67.763 695.588 -72.6636C620.455 -155.161 566.17 -214.771 452.925 -262.109C394.997 -286.325 321.558 -307.155 228.426 -325.782C132.494 -344.966 10.0487 -362.986 -145.918 -380.864L-146.044 -380.276C479.869 -308.537 542.845 -239.379 695.006 -72.3026C699.46 -67.4062 704 -62.426 708.623 -57.3621C768.694 8.38969 842.316 63.9349 940.319 117.429C1027.41 164.972 1121.93 204.482 1221.99 246.316C1372.36 309.183 1530.86 375.448 1681.74 476.937C1906.02 627.809 2113.57 856.518 2253.12 1267.87L2253.81 1267.69C2225.47 1184.15 2193.15 1105.05 2157.73 1032.56C2124.15 963.83 2086.74 898.893 2046.54 839.558C1972.83 730.783 1888.99 638.371 1790.24 557.043C1756.2 529.005 1720.23 502.242 1681.99 476.521L1682 476.525Z" fill="url(#paint1_linear_798_3404)"/>
<path d="M1684.87 469.047C1535.96 368.884 1378.19 307.664 1228.45 249.556C1033.07 173.727 848.518 102.103 717.685 -44.7259C708.749 -54.7588 700.157 -64.5155 691.849 -73.9466C655.92 -114.757 624.893 -149.996 588.753 -181.461C549.327 -215.782 507.156 -242.346 456.042 -265.053C398.775 -290.492 327.12 -312.278 236.971 -331.668C142.507 -351.981 24.0347 -370.515 -125.231 -388.324L-125.364 -387.697C478.061 -315.694 549.303 -234.782 691.227 -73.5673C699.53 -64.1309 708.122 -54.3742 717.058 -44.3413C776.794 22.7038 850.133 77.8913 947.856 129.35C1034.63 175.037 1128.61 211.516 1228.1 250.127C1377.74 308.201 1535.54 369.448 1684.33 469.53C1902.58 616.324 2101.58 846.645 2227.74 1273.33L2228.49 1273.15C2102.29 846.392 1903.15 615.882 1684.86 469.043L1684.87 469.047Z" fill="url(#paint2_linear_798_3404)"/>
<path d="M1687.79 461.597C1635.13 426.176 1577.54 393.811 1513.87 363.78C1420.83 319.896 1326.27 286.076 1234.82 253.362C1040.18 183.744 856.339 117.986 726.145 -31.7244C713.269 -46.5362 701.214 -60.7601 689.558 -74.5101C553.548 -234.991 478.63 -323.392 -104.568 -395.765L-104.721 -395.098C478.139 -322.764 552.99 -234.444 688.874 -74.1105C700.536 -60.3563 712.585 -46.1365 725.467 -31.3205C855.782 118.543 1039.72 184.33 1234.46 253.981C1598.65 384.244 2011.42 531.884 2202.37 1278.79L2203.17 1278.63C2179.98 1187.92 2152.59 1102.73 2121.76 1025.43C2092.5 952.087 2059.22 883.523 2022.83 821.655C1956.06 708.116 1878.21 614.337 1784.81 534.955C1754.36 509.077 1722.11 484.688 1687.79 461.602L1687.79 461.597Z" fill="url(#paint3_linear_798_3404)"/>
<path d="M1689.73 453.438C1637.72 418.465 1580.57 387.067 1517.14 358.532C1425.59 317.346 1331.96 286.751 1241.42 257.163C1047.45 193.774 864.238 133.899 734.605 -18.7511C718.12 -38.1623 703.094 -56.6462 688.555 -74.5249C558.802 -234.113 480.479 -330.434 -83.9069 -403.226L-84.0675 -402.519C479.96 -329.78 558.205 -233.548 687.837 -74.1124C702.376 -56.2338 717.409 -37.7456 733.894 -18.3248C863.666 134.491 1046.99 194.399 1241.08 257.829C1600.24 375.202 2007.32 508.234 2177.03 1284.24L2177.89 1284.09C2157.27 1189.83 2132.35 1101.63 2103.81 1021.96C2076.72 946.32 2045.51 875.963 2011.05 812.835C1947.78 696.932 1872.94 602.464 1782.26 524.034C1753.27 498.963 1722.52 475.492 1689.74 453.446L1689.73 453.438Z" fill="url(#paint4_linear_798_3404)"/>
<path d="M1690.58 444.448C1550.51 350.263 1397.28 304.992 1248.22 260.953C1054.83 203.821 872.176 149.861 743.048 -5.76534C723.266 -29.6092 705.682 -52.2161 688.671 -74.0714C658.153 -113.304 629.326 -150.362 595.747 -183.671C558.573 -220.56 519.016 -249.494 471.272 -274.744C416.632 -303.637 349.981 -328.123 267.511 -349.608C178.498 -372.8 70.2998 -392.766 -63.2732 -410.654L-63.4534 -409.907C483.269 -336.692 564.678 -232.044 687.896 -73.6439C704.902 -51.7832 722.492 -29.1721 742.287 -5.31982C871.574 150.494 1054.36 204.495 1247.88 261.666C1393.61 304.719 1547.38 350.15 1688.19 444.834C1889.46 580.173 2064.31 816.12 2151.68 1289.7L2152.58 1289.56C2134.54 1191.77 2112.09 1100.59 2085.85 1018.55C2060.94 940.638 2031.81 868.488 1999.27 804.107C1968.62 743.461 1933.92 687.675 1896.13 638.299C1860.94 592.319 1821.79 550.224 1779.76 513.185C1750.78 487.646 1720.99 464.894 1690.59 444.453L1690.58 444.448Z" fill="url(#paint5_linear_798_3404)"/>
<path d="M1691.8 435.784C1554.78 343.659 1402.93 303.637 1255.19 264.699C1062.33 213.863 880.17 165.854 751.491 7.21572C728.674 -20.909 708.902 -47.5313 689.786 -73.2752C630.83 -152.66 579.909 -221.221 478.055 -278.155C424.41 -308.142 359.319 -333.488 279.073 -355.632C191.95 -379.672 86.7124 -400.102 -42.6532 -418.078L-42.8475 -417.296C487.911 -343.54 567.894 -235.848 688.953 -72.8422C708.076 -47.0941 727.853 -20.4676 750.678 7.67094C879.537 166.528 1061.85 214.577 1254.87 265.455C1398.88 303.41 1550.86 343.478 1688.58 436.08C1884.46 567.781 2051.59 805.728 2126.33 1295.16L2127.29 1295.04C2111.81 1193.74 2091.83 1099.59 2067.9 1015.2C2045.15 935.031 2018.1 861.104 1987.5 795.472C1958.67 733.626 1925.7 677.066 1889.51 627.366C1855.8 581.067 1818.06 539.026 1777.34 502.412C1749.63 477.503 1721.05 455.459 1691.81 435.798L1691.8 435.784Z" fill="url(#paint6_linear_798_3404)"/>
<path d="M1692.72 426.906C1558.9 336.937 1408.58 302.191 1262.34 268.374C1069.94 223.895 888.219 181.879 759.918 20.175C734.309 -12.1012 712.681 -42.6667 691.755 -72.2234C577.17 -234.122 494.374 -351.095 -22.0381 -425.516L-22.2519 -424.694C493.714 -350.341 576.414 -233.504 690.876 -71.7861C711.803 -42.2198 733.443 -11.6459 759.066 20.6484C789.991 59.619 824.647 92.6389 865.008 121.598C901.085 147.481 941.038 169.557 987.13 189.09C1072.92 225.451 1164.78 246.691 1262.03 269.177C1438.96 310.086 1621.91 352.379 1774.19 492.24C1946.62 650.605 2053.52 915.022 2101.01 1300.6L2102.02 1300.49C2089.11 1195.71 2071.59 1098.61 2049.95 1011.9C2029.39 929.475 2004.42 853.775 1975.76 786.899C1948.73 723.848 1917.5 666.519 1882.92 616.489C1850.7 569.857 1814.37 527.864 1774.97 491.668C1748.42 467.293 1720.93 445.862 1692.73 426.9L1692.72 426.906Z" fill="url(#paint7_linear_798_3404)"/>
<path d="M1693.4 417.858C1562.91 330.136 1414.24 300.652 1269.64 271.977C1077.65 233.902 896.311 197.94 768.344 33.1418C740.155 -3.16829 716.939 -37.6277 694.485 -70.9589C638.984 -153.349 591.057 -224.508 493.657 -285.176C442.085 -317.298 379.989 -344.301 303.803 -367.735C220.396 -393.385 120.555 -414.708 -1.44261 -432.932L-1.66425 -432.07C500.537 -357.07 581.502 -236.876 693.559 -70.5173C716.015 -37.1765 739.244 -2.69906 767.447 33.629C798.284 73.3463 832.892 106.624 873.239 135.356C909.287 161.029 949.194 182.502 995.258 201.016C1080.96 235.465 1172.47 253.615 1269.36 272.829C1623.96 343.15 1990.62 415.866 2075.7 1306.07L2076.76 1305.97C2066.41 1197.74 2051.36 1097.72 2032.01 1008.69C2013.61 924.019 1990.73 846.557 1964 778.448C1938.79 714.203 1909.3 656.09 1876.35 605.724C1845.61 558.763 1810.71 516.798 1772.63 481.004C1747.15 457.066 1720.67 436.183 1693.41 417.852L1693.4 417.858Z" fill="url(#paint8_linear_798_3404)"/>
<path d="M1693.88 408.667C1566.81 323.249 1419.93 299.039 1277.08 275.486C1085.45 243.893 904.442 214.048 776.768 46.0938C746.18 5.85583 721.631 -32.4855 697.886 -69.5632C644.047 -153.642 597.538 -226.252 502.343 -288.759C397.865 -357.345 244.333 -405.511 19.1455 -440.339L18.9044 -439.438C508.231 -363.759 591.492 -233.729 696.903 -69.1065C720.656 -32.0151 745.212 6.34004 775.826 46.6044C806.595 87.0805 841.16 120.61 881.504 149.114C917.522 174.568 957.414 195.44 1003.46 212.916C1089.09 245.428 1180.28 260.46 1276.83 276.379C1449.2 304.796 1627.42 334.185 1769.47 471.001C1929.82 625.452 2021.72 900.392 2050.39 1311.53L2051.5 1311.44C2043.71 1199.79 2031.11 1096.87 2014.06 1005.53C1997.83 918.642 1977.04 839.42 1952.25 770.072C1928.86 704.628 1901.11 645.736 1869.78 595.034C1840.53 547.729 1807.08 505.795 1770.32 470.393C1745.84 446.812 1720.28 426.417 1693.88 408.667Z" fill="url(#paint9_linear_798_3404)"/>
<path d="M1693.99 399.109C1570.82 316.305 1426.76 297.473 1284.65 278.876C1093.33 253.837 912.605 230.191 785.172 59.0401C752.342 14.9538 726.685 -27.2498 701.867 -68.0588C676.198 -110.271 651.945 -150.146 622.398 -187.658C589.266 -229.713 554.034 -262.997 511.521 -292.385C509.635 -293.688 507.732 -294.985 505.819 -296.271C403.463 -365.069 255.06 -413.267 39.7201 -447.739L39.4594 -446.798C516.69 -370.396 597.953 -236.773 700.827 -67.5967C725.658 -26.7697 751.328 15.4518 784.179 59.5699C814.886 100.809 849.428 134.602 889.787 162.882C925.798 188.114 965.684 208.366 1011.73 224.798C1097.32 255.342 1192.44 267.788 1284.43 279.828C1627.37 324.711 1981.99 371.118 2025.09 1316.99L2026.25 1316.92C2000.97 762.026 1868.47 516.409 1693.99 399.119L1693.99 399.109Z" fill="url(#paint10_linear_798_3404)"/>
<path d="M1694.24 389.761C1683.22 382.358 1671.82 375.393 1659.98 368.828C1624.85 349.34 1586.65 333.855 1543.2 321.489C1462.58 298.539 1376.04 290.203 1292.35 282.146C1101.28 263.749 920.811 246.378 793.572 71.9737C758.648 24.114 732.071 -21.9481 706.363 -66.4984C681.541 -109.515 658.101 -150.138 629.334 -188.565C597.036 -231.712 562.655 -265.866 521.146 -296.067C420.638 -369.173 274.197 -419.723 60.2698 -455.158L59.9951 -454.182C525.821 -377.026 605.018 -239.796 705.274 -66.0511C730.997 -21.4828 757.587 24.5973 792.539 72.5025C823.197 114.521 857.733 148.583 898.111 176.623C934.132 201.627 974.018 221.255 1020.07 236.618C1105.66 265.168 1200.47 274.296 1292.17 283.123C1459.8 299.26 1633.14 315.951 1764.81 449.938C1912.97 600.697 1989.83 886.094 1999.8 1322.43L2001 1322.37C1998.3 1203.95 1990.6 1095.29 1978.11 999.42C1966.21 908.11 1949.59 825.403 1928.7 753.599C1908.95 685.758 1884.71 625.297 1856.63 573.894C1830.4 525.879 1799.83 483.953 1765.77 449.292C1743.57 426.703 1719.95 407.025 1694.24 389.741L1694.24 389.761Z" fill="url(#paint11_linear_798_3404)"/>
<path d="M1694.17 380.155C1683.59 373.046 1672.63 366.394 1661.23 360.164C1627.07 341.481 1589.79 327.037 1547.24 316.006C1468.27 295.529 1382.81 290.312 1300.17 285.263C1117.72 274.117 929.062 262.597 801.972 84.8933C765.084 33.3227 737.756 -16.6165 711.338 -64.9087C664.355 -150.776 619.972 -231.878 531.178 -299.782C432.734 -375.073 289.623 -426.796 80.815 -462.558L80.5146 -461.546C535.54 -383.618 616.47 -235.713 710.181 -64.4548C736.618 -16.1405 763.954 33.8221 800.876 85.4424C831.493 128.255 866.035 162.582 906.456 190.381C942.476 215.159 982.4 234.144 1028.49 248.423C1114.08 274.941 1208.6 280.713 1300.03 286.293C1465.23 296.381 1636.06 306.817 1762.5 439.486C1830.62 510.957 1880.72 611.149 1915.66 745.778C1954.92 897.016 1974.17 1087.43 1974.52 1327.89L1975.78 1327.85C1975.61 1206.08 1970.34 1094.6 1960.13 996.487C1950.4 902.985 1935.85 818.555 1916.89 745.524C1898.98 676.485 1876.48 615.236 1850.04 563.462C1825.32 515.083 1796.2 473.143 1763.5 438.826C1742.09 416.358 1719.19 396.964 1694.17 380.146L1694.17 380.155Z" fill="url(#paint12_linear_798_3404)"/>
<path d="M1694.01 370.482C1683.9 363.691 1673.42 357.371 1662.52 351.49C1629.34 333.596 1592.98 320.172 1551.35 310.461C1474.03 292.424 1389.69 290.293 1308.12 288.237C1125.85 283.639 937.359 278.88 810.364 97.816C771.623 42.5746 743.708 -11.2452 716.721 -63.2901C671.237 -151.011 628.271 -233.863 541.561 -303.528C445.201 -380.962 305.315 -433.836 101.346 -469.942L101.027 -468.89C294.52 -434.64 418.757 -386.561 504.824 -328.723C616.593 -253.615 664.059 -162.063 715.511 -62.8361C742.518 -10.7594 770.442 43.0932 809.218 98.3843C839.812 142.002 874.36 176.596 914.841 204.147C950.881 228.687 990.848 247.014 1036.98 260.185C1122.61 284.631 1216.87 287.009 1308.03 289.31C1470.76 293.419 1639.02 297.668 1760.21 429.076C1825.44 499.821 1872.41 600.8 1903.8 737.782C1939.02 891.476 1953.89 1086.29 1949.27 1333.34L1950.57 1333.32C1952.91 1208.24 1950.07 1093.95 1942.13 993.624C1934.55 897.953 1922.09 811.796 1905.08 737.543C1873.65 600.401 1826.6 499.28 1761.25 428.402C1740.59 406 1718.4 386.863 1694.01 370.472L1694.01 370.482Z" fill="url(#paint13_linear_798_3404)"/>
<path d="M1693.38 360.494C1674.4 347.743 1654.12 336.972 1632.07 327.879C1602.08 315.526 1569.45 306.593 1532.3 300.575C1463.31 289.386 1388.51 290.228 1316.17 291.045C1134.03 293.096 945.684 295.222 818.744 110.736C778.248 51.874 749.895 -5.85746 722.476 -61.6853C633.942 -241.97 557.481 -397.665 121.869 -477.327L121.53 -476.235C556.474 -396.691 632.823 -241.241 721.219 -61.2365C748.653 -5.37162 777.02 52.3873 817.564 111.316C848.142 155.753 882.715 190.626 923.26 217.915L923.498 218.075C959.532 242.288 999.449 259.895 1045.54 271.908C1131.23 294.243 1225.24 293.184 1316.14 292.161C1466.83 290.461 1609.16 288.857 1721.26 383.039C1795.93 445.777 1848.64 545.021 1882.39 686.447C1920.88 847.751 1934.49 1061.14 1924.01 1338.8L1925.37 1338.79C1930.69 1197.77 1929.64 1070.53 1922.26 960.622C1915.25 856.323 1902.29 763.992 1883.71 686.188C1849.91 544.556 1797.1 445.135 1722.25 382.24C1712.94 374.417 1703.34 367.18 1693.38 360.489L1693.38 360.494Z" fill="url(#paint14_linear_798_3404)"/>
<path d="M1693.03 350.696C1673.41 337.516 1652.32 326.717 1629.14 317.957C1600.37 307.076 1568.99 299.604 1533.23 295.112C1466.78 286.764 1394.36 290.272 1324.33 293.665C1142.28 302.485 954.023 311.605 827.108 123.644C784.938 61.1908 756.274 -0.47155 728.556 -60.107C686.029 -151.604 645.863 -238.027 563.258 -311.151C519.134 -350.207 466.293 -382.634 401.712 -410.27C330.084 -440.928 245.246 -465.276 142.359 -484.709L141.994 -483.581C567.567 -403.21 641.558 -244.005 727.241 -59.6623C754.974 0.0101948 783.653 61.7097 825.871 124.23C856.093 168.989 890.269 203.848 930.304 230.748C930.767 231.059 931.218 231.362 931.682 231.674C967.825 255.709 1007.88 272.689 1054.15 283.572C1139.93 303.751 1233.68 299.205 1324.35 294.813C1469.96 287.756 1607.51 281.089 1714.46 368.164C1870.26 495.009 1928.82 805.164 1898.76 1344.26L1900.16 1344.27C1908.34 1197.55 1909.85 1065.67 1904.64 952.299C1899.71 844.735 1888.54 750.02 1871.47 670.784C1840.44 526.795 1789.4 427.537 1715.45 367.327C1708.18 361.404 1700.71 355.867 1693.01 350.693L1693.03 350.696Z" fill="url(#paint15_linear_798_3404)"/>
<path d="M1692.63 340.873C1672.57 327.394 1650.87 316.72 1626.8 308.445C1599.18 298.958 1569.02 292.865 1534.58 289.826C1470.56 284.174 1403.55 289.956 1332.61 296.084C1150.61 311.797 962.426 328.055 835.476 136.545C791.717 70.5324 762.868 4.90065 734.965 -58.5702C693.901 -151.976 655.113 -240.206 574.519 -315.028C531.439 -355.016 479.807 -388.164 416.667 -416.376C346.564 -447.689 263.54 -472.456 162.857 -492.088L162.473 -490.92C323.946 -459.443 433.628 -415.669 512.191 -362.885C636.295 -279.504 682.811 -173.655 733.603 -58.1307C761.52 5.37717 790.392 71.0501 834.205 137.144C961.595 329.323 1150.26 313.03 1332.72 297.272C1473.46 285.12 1606.4 273.641 1708.41 353.98C1781.09 411.225 1830.08 510.011 1858.19 655.993C1890.35 822.995 1895.38 1049.91 1873.54 1349.71L1874.99 1349.74C1886.08 1197.38 1890.21 1060.93 1887.25 944.171C1884.45 833.397 1875.15 736.363 1859.62 655.768C1831.46 509.527 1782.33 410.528 1709.43 353.107C1703.96 348.798 1698.37 344.718 1692.64 340.872L1692.63 340.873Z" fill="url(#paint16_linear_798_3404)"/>
<path d="M1692.36 330.752C1672.06 317.114 1649.96 306.699 1625.21 299.071C1598.73 290.907 1569.74 286.126 1536.6 284.461C1474.97 281.358 1410.09 289.469 1341.4 298.055C1159.43 320.794 971.263 344.313 843.823 149.441C798.876 80.0689 770.071 10.6697 742.218 -56.4497C702.588 -151.933 665.158 -242.116 586.478 -318.706C544.404 -359.663 493.899 -393.576 432.076 -422.384C363.394 -454.384 282.024 -479.589 183.318 -499.446L182.914 -498.248C591.346 -416.083 660.606 -249.22 740.797 -56.0143C768.671 11.1463 797.499 80.5963 842.495 150.055C873.19 196.983 908 232.64 948.916 259.059C985.255 282.528 1025.52 298.05 1072.01 306.521C1158.09 322.203 1251.37 310.547 1341.57 299.275C1477.56 282.281 1606.01 266.227 1703.17 340.164C1774.6 394.515 1821.54 492.955 1846.66 641.108C1875.43 810.766 1875.97 1044.34 1848.3 1355.18L1849.8 1355.22C1863.86 1197.21 1870.66 1056.2 1870.01 936.099C1869.39 822.135 1862.03 722.811 1848.14 640.893C1822.97 492.46 1775.89 393.789 1704.2 339.246C1700.32 336.287 1696.37 333.464 1692.35 330.763L1692.36 330.752Z" fill="url(#paint17_linear_798_3404)"/>
<path d="M1691.86 320.977C1671.46 307.271 1649.12 297.216 1623.85 290.333C1598.44 283.407 1570.55 279.864 1538.62 279.497C1479.22 278.817 1416.34 289.158 1349.79 300.105C1167.8 330.033 979.611 360.982 852.172 162.329C805.67 89.3712 776.847 15.8711 748.966 -55.2142C710.789 -152.566 674.723 -244.518 598.035 -322.725C557.003 -364.57 507.678 -399.176 447.235 -428.52C380.043 -461.142 300.405 -486.749 203.785 -506.803L203.354 -505.569C346.678 -475.824 447.255 -434.832 520.829 -385.406C652.546 -296.921 697.838 -181.408 747.498 -54.7841C775.395 16.3478 804.246 89.9029 850.804 162.952C881.492 210.792 916.346 246.741 957.377 272.879C993.792 296.077 1034.14 310.864 1080.74 318.088C1166.98 331.459 1260.03 316.157 1350.03 301.351C1481.57 279.72 1605.81 259.289 1698.42 327.289C1768.5 378.73 1813.29 476.747 1835.36 626.943C1860.67 799.095 1856.65 1039.08 1823.1 1360.62L1824.63 1360.69C1841.7 1197.2 1851.2 1051.79 1852.9 928.465C1854.51 811.419 1849.12 709.904 1836.9 626.747C1814.78 476.242 1769.82 377.972 1699.48 326.321C1696.97 324.48 1694.43 322.701 1691.86 320.977Z" fill="url(#paint18_linear_798_3404)"/>
<path d="M1691.4 311.222C1602.93 251.795 1484.03 276.149 1358.25 301.904C1176.2 339.178 987.962 377.723 860.51 175.204C812.501 98.666 783.75 21.0207 755.948 -54.0721C719.213 -153.289 684.509 -247 609.791 -326.802C569.796 -369.521 521.628 -404.807 462.536 -434.689C396.805 -467.925 318.858 -493.925 224.227 -514.176L223.778 -512.902C615.414 -429.091 679.833 -255.102 754.433 -53.6471C782.257 21.4964 811.026 99.1978 859.098 175.84C889.787 224.606 924.703 260.858 965.851 286.692C1002.35 309.598 1042.81 323.629 1089.53 329.578C1175.93 340.58 1268.78 321.564 1358.59 303.175C1485.83 277.12 1606.01 252.512 1694.28 314.939C1762.85 363.454 1805.4 461.015 1824.35 613.188C1846.08 787.714 1837.43 1033.98 1797.91 1366.07L1799.5 1366.15C1839.03 1033.97 1847.68 787.612 1825.94 613.001C1816.09 533.893 1799.53 468.427 1776.71 418.44C1755.41 371.778 1728.8 337.59 1695.35 313.923C1694.05 313.005 1692.73 312.093 1691.41 311.206L1691.4 311.222Z" fill="url(#paint19_linear_798_3404)"/>
<path d="M1690.78 301.377C1606.19 244.553 1489.89 273.155 1366.79 303.433C1277.35 325.427 1184.86 348.177 1098.62 339.65C1001.03 330.003 925.869 280.421 868.85 188.072C819.382 107.963 790.802 26.1264 763.157 -53.0173C727.851 -154.088 694.51 -249.557 621.735 -330.926C582.766 -374.498 535.738 -410.458 477.955 -440.859C413.657 -474.691 337.348 -501.084 244.665 -521.533L244.19 -520.223C369.249 -492.636 460.484 -454.25 528.981 -408.24C670.612 -313.105 715.215 -185.349 761.583 -52.5963C789.246 26.6033 817.849 108.5 867.386 188.718C898.078 238.428 933.08 274.991 974.356 300.5C1010.95 323.111 1051.51 336.356 1098.37 340.987C1184.96 349.552 1277.61 326.762 1367.22 304.718C1489.89 274.544 1605.79 246.043 1689.74 302.429C1690.05 302.639 1690.36 302.849 1690.68 303.06C1723.15 325.184 1748.68 358.349 1768.73 404.466C1790.59 454.721 1805.25 518.633 1813.54 599.84C1831.6 776.628 1818.24 1029.05 1772.72 1371.51L1774.35 1371.61C1819.89 1029.05 1833.24 776.551 1815.17 599.673C1806.87 518.342 1792.18 454.322 1770.28 403.962C1750.12 357.618 1724.43 324.266 1691.74 301.996C1691.42 301.781 1691.1 301.567 1690.79 301.357L1690.78 301.377Z" fill="url(#paint20_linear_798_3404)"/>
<g opacity="0.03">
<path d="M3010.45 786.016C2930.13 845.699 2689.06 953.114 2400.46 1034.62C2211.05 1088.11 1863.29 1167.8 1662.29 1100.42C1565.72 1068.05 1515.54 1005.21 1513.14 913.642C1511.25 836.968 1564.83 730.943 1621.55 618.688C1705.15 453.253 1791.6 282.19 1702.83 193.595C1696.6 187.383 1689.57 181.648 1681.73 176.384C1600.39 121.752 1432.06 118.452 1169.14 166.086C947.701 206.369 780.119 188.067 656.827 110.119C565.955 52.6647 500.09 -36.4918 455.493 -162.452C416.094 -273.73 393.298 -414.884 385.807 -593.98L385.138 -593.939C392.628 -414.8 415.433 -273.604 454.849 -162.279C476.465 -101.223 503.752 -47.7972 535.95 -3.46754C569.712 43.0078 610.24 81.3759 656.402 110.564C686.138 129.361 719.026 144.888 754.17 156.713C790.075 168.791 829.451 177.386 871.215 182.252C957.004 192.255 1057.28 186.998 1169.26 166.627C1457.23 114.452 1631.59 123.392 1702.3 193.963C1790.83 282.307 1704.46 453.214 1620.94 618.497C1564.18 730.803 1510.57 836.89 1512.47 913.674C1514.88 1005.47 1565.19 1068.47 1662.02 1100.93C1742.24 1127.82 1853.84 1133.75 1993.69 1118.53C2112.52 1105.6 2253.25 1076.77 2400.65 1035.14C2528.03 999.17 2661.16 953.317 2775.51 906.032C2883.69 861.305 2967.27 818.826 3010.88 786.421L3010.44 786.021L3010.45 786.016Z" fill="url(#paint21_linear_798_3404)"/>
</g>
<g opacity="0.07">
<path d="M3017.61 777.239C2975.3 808.27 2890.59 850.715 2785.18 893.696C2671.35 940.115 2538.89 985.01 2412.22 1020.11C2262.79 1061.53 2125.5 1088.93 2004.15 1101.58C1863.13 1116.27 1749.51 1110.1 1666.46 1083.22C1563.56 1049.92 1508.33 984.809 1502.31 889.698C1497.52 810.255 1548.18 703.411 1601.83 590.292C1677.2 431.351 1755.13 266.995 1668.27 182.431C1662.43 176.744 1655.88 171.462 1648.65 166.601C1568.95 113.057 1404.52 109.831 1147.82 156.528C930.495 196.395 766.056 179.137 645.109 103.771C555.918 48.1837 490.708 -38.6468 445.773 -161.687C405.982 -270.649 381.801 -410.04 371.839 -587.829L371.119 -587.778C381.085 -409.942 405.276 -270.509 445.083 -161.5C466.907 -101.744 494.146 -49.5513 526.057 -6.38376C559.443 38.7893 599.347 76.0084 644.657 104.242C673.949 122.491 706.328 137.525 740.9 148.921C776.166 160.543 814.84 168.764 855.852 173.337C939.851 182.707 1038.12 177.246 1147.94 157.098C1427.65 106.215 1597.67 114.629 1667.71 182.822C1754.31 267.127 1676.45 431.312 1601.16 590.092C1575.4 644.406 1548.77 700.572 1529.86 751.658C1508.69 808.848 1499.44 854.016 1501.6 889.743C1507.63 985.097 1563 1050.38 1666.17 1083.76C1749.34 1110.68 1863.07 1116.86 2004.22 1102.16C2125.61 1089.51 2262.95 1062.09 2412.42 1020.67C2539.13 985.55 2671.61 940.647 2785.48 894.215C2890.93 851.215 2975.71 808.735 3018.07 777.665L3017.61 777.229L3017.61 777.239Z" fill="url(#paint22_linear_798_3404)"/>
</g>
<g opacity="0.1">
<path d="M3024.78 768.457C2983.08 798.622 2899.38 839.952 2795.15 881.86C2714.98 914.092 2585.52 961.731 2424.05 1005.64C2234.96 1057.06 1885.69 1133.28 1671.06 1066.12C1561.68 1031.89 1501.27 964.477 1491.51 865.751C1483.72 783.567 1533.42 671.16 1581.49 562.454C1615.18 486.245 1650.03 407.44 1665.17 339.109C1673.33 302.296 1675.26 271.415 1671.09 244.704C1666.41 214.684 1654.19 190.659 1633.74 171.261C1628.29 166.093 1622.25 161.276 1615.61 156.819C1537.52 104.37 1376.97 101.201 1126.5 146.961C913.213 186.423 751.892 170.204 633.292 97.3748C545.798 43.6396 481.261 -40.8713 436.021 -160.994C395.835 -267.678 370.276 -405.294 357.876 -581.69L357.115 -581.631C369.515 -405.182 395.09 -267.52 435.293 -160.789C480.585 -40.5416 545.201 44.0672 632.826 97.8811C661.682 115.597 693.553 130.147 727.565 141.122C762.198 152.301 800.17 160.138 840.448 164.423C922.652 173.164 1018.94 167.496 1126.64 147.566C1398.1 97.9708 1563.78 105.854 1633.16 171.672C1671.16 207.718 1681.38 262.452 1664.42 339.004C1649.29 407.281 1614.45 486.061 1580.77 562.24C1556.71 616.661 1531.83 672.939 1514.47 724.679C1495.01 782.701 1487.25 828.866 1490.75 865.81C1500.54 964.794 1561.11 1032.37 1670.76 1066.69C1756.77 1093.61 1872.58 1100.05 2014.94 1085.84C2137.15 1073.64 2274.86 1046.85 2424.26 1006.22C2513.4 981.978 2650.16 940.822 2795.45 882.412C2899.75 840.478 2983.51 799.109 3025.26 768.905L3024.76 768.439L3024.78 768.457Z" fill="url(#paint23_linear_798_3404)"/>
</g>
<g opacity="0.14">
<path d="M3031.93 759.672C2990.84 788.973 2908.09 829.223 2804.9 870.093C2725.02 901.731 2596.07 948.442 2435.36 991.295C2246.3 1041.71 1896.14 1116.26 1675.25 1049.09C1559.52 1013.89 1494.06 944.161 1480.69 841.805C1469.59 756.834 1515.77 643.923 1560.41 534.731C1590.45 461.291 1621.5 385.354 1633.9 320.049C1640.56 284.902 1641.49 255.444 1636.72 229.982C1631.37 201.409 1619.04 178.533 1599.02 160.054C1582.97 145.228 1561.65 133.327 1535.69 124.665C1508.34 115.549 1474.83 109.692 1436.08 107.263C1353.61 102.098 1242.28 112.244 1105.17 137.401C895.865 176.475 737.61 161.285 621.371 90.9589C535.582 39.046 471.747 -43.1523 426.216 -160.349C385.642 -264.803 358.713 -400.61 343.911 -575.536L343.099 -575.467C357.911 -400.489 384.846 -264.626 425.442 -160.13C471.021 -42.7938 534.943 39.5163 620.873 91.4973C737.305 161.944 895.774 177.171 1105.32 138.05C1242.35 112.905 1353.6 102.767 1435.98 107.921C1512.12 112.689 1565.24 129.885 1598.4 160.499C1635.59 194.84 1646.94 247.002 1633.09 319.959C1620.7 385.2 1589.66 461.117 1559.64 534.527C1514.96 643.785 1468.76 756.769 1479.89 841.888C1493.29 944.505 1558.92 1014.42 1674.94 1049.7C1763.63 1076.67 1881.41 1083.39 2025 1069.68C2148.01 1057.93 2286.16 1031.77 2435.59 991.922C2596.35 949.06 2725.33 902.331 2805.23 870.681C2908.49 829.785 2991.3 789.5 3032.45 760.156L3031.93 759.653L3031.93 759.672Z" fill="url(#paint24_linear_798_3404)"/>
</g>
<g opacity="0.17">
<path d="M3039.09 750.896C2998.59 779.343 2916.84 818.497 2814.8 858.331C2735.28 889.368 2606.95 935.136 2447.15 976.941C2258.27 1026.34 1907.51 1099.22 1680.42 1032.18C1558.04 996.044 1487.21 923.944 1469.88 817.861C1455.58 730.255 1497.86 617.12 1538.76 507.71C1566.5 433.469 1592.71 363.342 1602.49 300.763C1607.75 267.116 1607.7 238.943 1602.34 214.628C1596.33 187.377 1583.84 165.578 1564.17 147.977C1548.22 133.707 1527.23 122.275 1501.78 114.008C1475.02 105.307 1442.32 99.7842 1404.61 97.5912C1323.35 92.8617 1218.43 102.757 1083.85 127.848C878.02 166.227 722.618 151.807 608.774 83.7838C524.869 33.6521 461.88 -46.1805 416.21 -160.268C375.336 -262.372 347.117 -396.199 329.952 -569.381L329.089 -569.292C337.511 -484.328 348.202 -411.001 361.763 -345.123C376.35 -274.264 393.895 -213.717 415.392 -160.016C461.122 -45.7901 524.198 34.1543 608.258 84.372C722.307 152.524 877.934 166.97 1084.02 128.548C1216.64 103.819 1324.48 93.6465 1404.53 98.3105C1478.6 102.624 1530.62 119.039 1563.54 148.475C1600.59 181.626 1612.7 229.995 1601.65 300.704C1591.88 363.22 1565.68 433.318 1537.94 507.529C1497.03 617.014 1454.71 730.223 1469.04 817.991C1486.41 924.343 1557.42 996.633 1680.11 1032.85C1771.47 1059.82 1891.16 1066.78 2035.87 1053.54C2159.6 1042.23 2298.06 1016.69 2447.39 977.624C2607.25 935.809 2735.62 890.023 2815.17 858.978C2917.28 819.118 2999.1 779.923 3039.66 751.437L3039.11 750.899L3039.09 750.896Z" fill="url(#paint25_linear_798_3404)"/>
</g>
<g opacity="0.21">
<path d="M3046.25 742.118C2967.32 796.694 2726.05 894.094 2458.93 962.628C2270.27 1011.04 1918.97 1082.25 1685.9 1015.34C1556.78 978.265 1480.46 903.77 1459.06 793.915C1441.49 703.722 1479.7 590.732 1516.65 481.464C1564.52 339.918 1609.74 206.218 1529.57 136.642C1496.76 108.166 1445.66 92.3865 1373.37 88.3997C1294.42 84.0514 1192.74 93.8305 1062.51 118.29C860.405 156.256 707.964 142.803 596.5 77.1713C514.365 28.8078 452.13 -48.7219 406.258 -159.858C364.429 -261.182 335.739 -389.355 315.979 -563.234L315.064 -563.136C324.645 -478.833 336.22 -406.281 350.454 -341.321C365.722 -271.588 383.698 -212.146 405.395 -159.592C451.333 -48.3132 513.668 29.3367 595.957 77.7862C623.526 94.0235 653.936 107.227 686.347 117.036C719.138 126.968 755.118 133.769 793.286 137.249C871.312 144.373 959.438 138.413 1062.69 119.013C1192.83 94.5669 1294.43 84.7957 1373.28 89.1434C1445.34 93.1187 1496.25 108.825 1528.91 137.162C1608.74 206.435 1563.59 339.932 1515.79 481.274C1478.81 590.622 1440.56 703.697 1458.17 794.049C1479.62 904.182 1556.14 978.87 1685.59 1016.04C1779.5 1043 1901.04 1050.2 2046.83 1037.44C2171.24 1026.55 2309.98 1001.62 2459.19 963.333C2726.42 894.769 2967.83 797.298 3046.84 742.672L3046.27 742.102L3046.25 742.118Z" fill="url(#paint26_linear_798_3404)"/>
</g>
<g opacity="0.24">
<path d="M3053.41 733.342C2974.91 786.724 2735.49 881.756 2470.71 948.379C2145.32 1030.25 1868.65 1048.08 1691.67 998.568C1555.74 960.547 1473.84 883.637 1448.24 769.974C1427.36 677.276 1461.28 564.683 1494.08 455.802C1535.03 319.87 1573.71 191.479 1495 125.315C1491.28 122.185 1487.32 119.218 1483.14 116.411C1450.74 94.6425 1404.4 82.4446 1342.13 79.2181C1265.51 75.2458 1167.07 84.9042 1041.18 108.738C842.699 146.316 693.194 133.823 584.106 70.5436C431.438 -18.009 347.075 -205.711 301.988 -557.079L301.028 -556.967C323.118 -384.829 353.074 -258.446 395.316 -159.22C441.439 -50.8767 502.995 24.4966 583.521 71.201C638.647 103.178 702.098 121.859 777.5 128.314C853.739 134.842 940.048 128.693 1041.35 109.51C1167.14 85.6947 1265.5 76.0399 1342.02 80.0075C1412.08 83.6391 1461.88 98.6401 1494.28 125.875C1572.63 191.732 1534.01 319.916 1493.13 455.625C1460.3 564.595 1426.35 677.268 1447.27 770.135C1472.94 884.084 1555.05 961.191 1691.31 999.305C1787.7 1026.27 1911.01 1033.71 2057.83 1021.43C2182.88 1010.96 2321.87 986.631 2470.94 949.121C2735.84 882.468 2975.41 787.367 3053.98 733.93L3053.39 733.325L3053.41 733.342Z" fill="url(#paint27_linear_798_3404)"/>
</g>
<g opacity="0.28">
<path d="M3060.57 724.554C3021.78 750.478 2942.98 786.429 2844.37 823.194C2765.93 852.443 2639.47 895.435 2482.44 934.171C2252.53 990.892 1929.73 1045.21 1697.67 981.829C1554.91 942.842 1467.34 863.506 1437.42 746.011C1413.19 650.903 1442.62 538.966 1471.07 430.718C1488.57 364.111 1505.11 301.197 1507.79 246.426C1509.23 217.057 1506.56 192.537 1499.65 171.46C1491.92 147.943 1479.1 129.134 1460.44 113.971C1428.11 87.6996 1379.2 73.3233 1310.9 70.0209C1236.6 66.4246 1141.39 75.9622 1019.83 99.1714C824.904 136.387 678.276 124.85 571.586 63.8936C493.01 18.9981 432.351 -53.985 386.139 -159.238C343.533 -256.299 312.346 -380.761 288 -550.938L286.994 -550.811C311.345 -380.578 342.544 -256.054 385.186 -158.935C431.466 -53.5196 492.243 19.5867 570.985 64.5766C625.184 95.5395 687.553 113.465 761.658 119.368C836.11 125.301 920.619 118.955 1020.02 99.9751C1141.48 76.7855 1236.59 67.2569 1310.79 70.8485C1378.84 74.1363 1427.55 88.4417 1459.7 114.572C1494.82 143.111 1509.78 185.007 1506.77 246.414C1504.09 301.114 1487.56 363.987 1470.06 430.56C1441.59 538.897 1412.14 650.924 1436.41 746.205C1466.41 863.995 1554.18 943.532 1697.3 982.614C1796.08 1009.59 1921.1 1017.28 2068.9 1005.46C2194.54 995.417 2333.76 971.698 2482.68 934.961C2639.76 896.209 2766.27 853.204 2844.74 823.947C2943.43 787.15 3022.31 751.153 3061.17 725.189L3060.55 724.547L3060.57 724.554Z" fill="url(#paint28_linear_798_3404)"/>
</g>
<g opacity="0.31">
<path d="M3067.73 715.778C3029.48 740.877 2951.64 775.789 2854.16 811.557C2776.05 840.216 2650.19 882.3 2494.12 920.042C2264.47 975.576 1940.93 1028.48 1703.85 965.153C1554.24 925.188 1460.96 843.402 1426.59 722.073C1399.01 624.671 1423.75 513.649 1447.67 406.276C1461.99 342.008 1475.52 281.312 1476.04 228.91C1476.63 170.06 1460.7 129.944 1425.91 102.659C1423.29 100.605 1420.56 98.6196 1417.73 96.7161C1385.88 75.3241 1340.58 63.5729 1279.68 60.8523C1207.69 57.6372 1115.72 67.05 998.506 89.6279C804.366 127.023 664.699 116.735 558.973 57.2539C482.184 14.0485 422.337 -56.6896 376.003 -159.018C332.992 -254.019 300.588 -376.595 274.038 -544.768L272.981 -544.622C299.544 -376.379 331.965 -253.747 375 -158.685C421.403 -56.1859 481.38 14.6839 558.341 57.9879C611.628 87.9637 672.932 105.138 745.768 110.482C818.428 115.814 901.159 109.27 998.706 90.4834C1115.82 67.9251 1207.7 58.5213 1279.58 61.7274C1345.63 64.6798 1393.25 78.2738 1425.16 103.304C1459.72 130.413 1475.55 170.337 1474.97 228.931C1474.45 281.256 1460.93 341.923 1446.62 406.148C1434.87 458.842 1422.73 513.333 1416.94 567.029C1410.37 627.875 1413.18 678.661 1425.54 722.304C1459.99 843.937 1553.5 925.932 1703.48 965.988C1804.56 992.991 1931.23 1000.94 2079.97 989.595C2206.18 979.977 2345.61 956.856 2494.38 920.883C2650.52 883.124 2776.42 841.027 2854.56 812.36C2952.11 776.56 3030.05 741.606 3068.36 716.462L3067.73 715.783L3067.73 715.778Z" fill="url(#paint29_linear_798_3404)"/>
</g>
<g opacity="0.34">
<path d="M3074.9 706.998C3037.72 730.932 2958.84 765.676 2863.9 799.949C2786.13 828.025 2660.85 869.212 2505.72 905.966C2276.3 960.323 1952.05 1011.82 1710.17 948.485C1553.72 907.52 1454.68 823.278 1415.77 698.111C1384.83 598.558 1405.61 483.751 1423.94 382.453C1435.18 320.409 1445.78 261.809 1444.23 211.654C1442.48 155.464 1425.7 117.222 1391.4 91.3169C1359.54 67.2472 1312.79 54.2802 1248.46 51.6562C1178.79 48.8172 1090.04 58.1102 977.163 80.0579C786.414 117.145 649.481 107.779 546.207 50.5865C471.216 9.05125 412.19 -59.4715 365.766 -158.897C322.346 -251.887 288.752 -372.55 260.052 -538.627L258.95 -538.468C287.662 -372.32 321.268 -251.595 364.718 -158.541C411.223 -58.9454 470.367 9.7102 545.556 51.3513C597.938 80.3633 658.212 96.7915 729.809 101.578C800.664 106.311 881.642 99.5674 977.378 80.9505C1090.16 59.0223 1178.8 49.7394 1248.36 52.5736C1312.43 55.18 1358.98 68.0708 1390.64 92.0061C1424.7 117.747 1441.38 155.783 1443.11 211.714C1444.66 261.788 1434.06 320.348 1422.84 382.353C1413.44 434.323 1403.71 488.06 1400.13 541.678C1396.07 602.534 1400.83 653.787 1414.69 698.374C1453.69 823.86 1552.98 908.304 1709.79 949.363C1813.09 976.413 1941.34 984.624 2090.99 973.772C2217.73 964.579 2357.35 942.065 2505.98 906.854C2661.18 870.08 2786.5 828.878 2864.3 800.79C2960.74 765.973 3037.74 732.05 3075.55 707.714L3074.88 706.999L3074.9 706.998Z" fill="url(#paint30_linear_798_3404)"/>
</g>
<g opacity="0.38">
<path d="M3082.06 698.221C3045.36 721.369 2967.43 755.071 2873.59 788.388C2796.12 815.887 2671.41 856.184 2517.2 891.974C2288 945.164 1963.05 995.257 1716.56 931.856C1553.33 889.866 1448.49 803.168 1404.95 674.164C1370.68 572.632 1386.23 459.312 1399.95 359.335C1416.56 238.269 1430.91 133.718 1356.92 79.9978C1325.29 57.0304 1279.61 44.7666 1217.25 42.4898C1149.89 40.0279 1064.38 49.1907 955.826 70.5093C768.374 107.322 634.123 98.8777 533.322 43.9436C460.119 4.04584 401.935 -62.2827 355.45 -158.822C311.615 -249.848 276.862 -368.577 246.08 -532.46L244.934 -532.277C275.728 -368.323 310.505 -249.534 354.37 -158.433C377.761 -109.864 403.353 -69.9431 432.629 -36.3928C462.432 -2.23008 495.16 24.3139 532.664 44.7572C633.737 99.8477 768.278 108.326 956.064 71.4526C1064.51 50.1589 1149.92 40.9967 1217.16 43.4549C1279.26 45.7236 1324.72 57.9218 1356.15 80.741C1429.7 134.143 1415.38 238.474 1398.81 359.273C1385.07 459.337 1369.51 572.754 1403.84 674.463C1447.49 803.783 1552.58 890.694 1716.19 932.781C1821.62 959.9 1951.41 968.4 2101.94 958.041C2229.19 949.284 2368.99 927.371 2517.49 892.907C2671.76 857.107 2796.53 816.79 2874.03 789.279C2967.95 755.934 3045.98 722.179 3082.76 698.985L3082.07 698.23L3082.06 698.221Z" fill="url(#paint31_linear_798_3404)"/>
</g>
<g opacity="0.41">
<path d="M3089.22 689.441C3052.98 711.809 2975.96 744.491 2883.21 776.863C2806.02 803.797 2681.84 843.213 2528.56 878.044C2299.53 930.078 1973.87 978.766 1722.96 915.216C1553.02 872.172 1442.38 783.01 1394.12 650.208C1356.58 546.911 1366.77 435.359 1375.76 336.938C1386.41 220.308 1395.61 119.582 1322.48 68.6765C1291.05 46.8179 1246.44 35.2479 1186.05 33.3142C1121.01 31.2242 1038.73 40.2672 934.493 60.9567C750.216 97.53 618.613 90.0119 520.318 37.304C448.906 -0.990023 391.573 -65.1443 345.047 -158.828C300.794 -247.938 264.907 -364.706 232.106 -526.3L230.909 -526.097C263.717 -364.428 299.634 -247.595 343.923 -158.416C367.392 -111.164 392.849 -72.4019 421.753 -39.9199C451.07 -6.98272 483.082 18.5548 519.627 38.1495C570.259 65.2998 628.518 80.2661 697.727 83.9C764.925 87.4303 842.448 80.2416 934.733 61.9287C1038.85 41.2653 1121.03 32.2323 1185.95 34.3186C1246.08 36.2442 1290.5 47.7221 1321.68 69.456C1394.36 120.05 1385.18 220.542 1374.56 336.905C1365.56 435.409 1355.37 547.057 1392.97 650.527C1418.12 719.744 1460.58 777.712 1519.17 822.813C1572.94 864.193 1641.36 895.608 1722.57 916.172C1830.06 943.401 1961.33 952.206 2112.73 942.345C2240.45 934.032 2380.46 912.72 2528.84 879.007C2682.19 844.17 2806.43 804.729 2883.65 777.782C2976.49 745.382 3053.61 712.652 3089.93 690.237L3089.23 689.445L3089.22 689.441Z" fill="url(#paint32_linear_798_3404)"/>
</g>
<g opacity="0.45">
<path d="M3096.38 680.656C3033.12 718.83 2812.46 803.557 2539.74 864.188C2310.85 915.071 1984.45 962.345 1729.31 898.566C1552.77 854.432 1436.35 762.811 1383.29 626.247C1342.58 521.454 1347.3 411.956 1351.47 315.352C1353.89 259.109 1356.18 205.989 1348.8 161.79C1340.62 112.899 1321.47 79.7989 1288.56 57.6931C1288.4 57.5797 1288.23 57.4704 1288.06 57.3569C1224.1 14.7876 1104.97 12.8946 913.146 51.3956C729.454 88.2689 604.245 81.8768 507.163 30.6789C437.526 -6.04825 381.06 -68.063 334.526 -158.913C289.844 -246.149 252.855 -360.936 218.119 -520.147L216.877 -519.921C251.632 -360.635 288.646 -245.778 333.363 -158.474C356.894 -112.524 382.206 -74.9094 410.746 -43.4821C439.561 -11.745 470.871 12.804 506.453 31.5648C556.239 57.8175 613.528 72.061 681.594 75.1039C746.928 78.0216 822.746 70.6034 913.396 52.4099C1104.81 13.9915 1223.6 15.8218 1287.25 58.181C1287.41 58.2902 1287.58 58.4037 1287.74 58.513C1320.41 80.4548 1339.42 113.347 1347.55 161.974C1354.92 206.087 1352.64 259.163 1350.21 315.354C1346.04 412.044 1341.31 521.639 1382.09 626.598C1409.76 697.83 1455.06 757.449 1516.73 803.807C1573.22 846.276 1644.61 878.488 1728.91 899.562C1838.38 926.927 1971.1 936.069 2123.35 926.726C2251.55 918.863 2391.75 898.157 2540.04 865.188C2692.48 831.298 2816.24 792.725 2893.2 766.331C2984.99 734.86 3061.21 703.148 3097.11 681.484L3096.39 680.655L3096.38 680.656Z" fill="url(#paint33_linear_798_3404)"/>
</g>
<g opacity="0.48">
<path d="M3103.55 671.879C3040.23 709.177 2820.73 791.711 2550.76 850.415C2321.93 900.163 1994.75 946.009 1735.54 881.899C1552.53 836.638 1430.38 742.563 1372.46 602.294C1328.72 496.348 1327.91 389.202 1327.19 294.668C1326.78 240 1326.39 188.363 1317.13 145.848C1306.87 98.7185 1286.71 67.0133 1253.7 46.0468C1190.4 5.87839 1075.4 4.54132 891.796 41.8349C711.089 78.5453 588.369 73.0705 493.885 24.0806C426.021 -11.1081 370.418 -71.0214 323.906 -159.079C278.792 -244.488 240.732 -357.263 204.14 -514.003L202.852 -513.763C239.464 -356.948 277.554 -244.099 322.704 -158.622C346.292 -113.969 371.449 -77.4819 399.626 -47.0904C427.948 -16.5397 458.544 7.04077 493.166 24.9963C587.964 74.1434 710.993 79.6652 892.072 42.8755C1075.26 5.66573 1189.91 6.94 1252.88 46.9047C1285.63 67.6947 1305.65 99.2069 1315.85 146.063C1325.08 188.484 1325.48 240.077 1325.89 294.702C1326.6 389.314 1327.41 496.551 1371.22 602.659C1401.45 675.877 1449.59 737.137 1514.31 784.745C1573.53 828.295 1647.81 861.329 1735.12 882.92C1994.63 947.102 2322.06 901.228 2551.05 851.44C2821.19 792.706 3040.88 710.085 3104.3 672.735L3103.56 671.859L3103.55 671.879Z" fill="url(#paint34_linear_798_3404)"/>
</g>
<g opacity="0.52">
<path d="M3110.71 663.094C3047.21 699.545 2828.75 779.933 2561.55 836.706C2332.72 885.326 2004.71 929.733 1741.58 865.182C1552.27 818.743 1424.44 722.232 1361.62 578.32C1315.06 471.652 1308.7 367.178 1303.08 275.004C1299.83 221.671 1296.76 171.291 1285.65 130.286C1274.12 87.7154 1254.84 58.3469 1225.26 38.4795C1223.35 37.1934 1221.39 35.9499 1219.39 34.7395C1188.6 16.1717 1147.1 6.70283 1092.5 5.78523C1034.39 4.81755 961.755 13.4764 870.443 32.2636C692.587 68.8627 572.316 64.3139 480.475 17.5182C414.369 -16.1689 359.637 -74.0103 313.168 -159.316C267.617 -242.927 228.53 -353.679 190.154 -507.853L188.822 -507.59C227.218 -353.331 266.335 -242.514 311.922 -158.825C335.551 -115.453 360.553 -80.0849 388.353 -50.7037C416.171 -21.3099 446.057 1.32111 479.731 18.4796C527.879 43.0083 583.313 55.8173 649.21 57.6235C710.691 59.3134 783.146 51.3694 870.729 33.3467C1045.73 -2.66419 1156.26 -1.93753 1218.56 35.6462C1289.78 78.5901 1295.04 165.308 1301.73 275.096C1307.35 367.348 1313.72 471.902 1360.34 578.728C1393.15 653.892 1444.14 716.774 1511.88 765.626C1573.75 810.252 1650.9 844.112 1741.15 866.248C2004.58 930.871 2332.86 886.433 2561.85 837.778C2829.22 780.97 3047.87 700.49 3111.47 663.993L3110.72 663.079L3110.71 663.094Z" fill="url(#paint35_linear_798_3404)"/>
</g>
<g opacity="0.55">
<path d="M3117.88 654.314C3083.59 673.458 3008.11 702.924 2920.87 731.193C2844.47 755.954 2721.94 792.006 2572.12 823.092C2343.2 870.592 2014.28 913.549 1747.35 848.433C1551.96 800.767 1418.53 701.831 1350.79 554.366C1301.7 447.523 1289.83 346.084 1279.35 256.578C1267.32 153.826 1257.71 71.742 1194.03 28.9669C1191.18 27.0545 1188.23 25.2242 1185.17 23.4676C1154.58 5.98576 1114.1 -2.79316 1061.39 -3.36508C1005.57 -3.97335 936.133 4.56388 849.093 22.7221C641.696 65.9963 517.64 54.4083 420.916 -17.271C319.212 -92.6424 246.008 -237.512 176.159 -501.681L174.782 -501.394C209.492 -370.14 245.156 -268.794 283.8 -191.566C323.56 -112.127 368.096 -54.8266 419.953 -16.3943C470.612 21.1442 530.256 42.0717 602.287 47.5692C668.93 52.6548 747.449 45.1198 849.389 23.8475C936.302 5.71107 1005.63 -2.81489 1061.31 -2.20381C1113.73 -1.63246 1153.97 7.08308 1184.34 24.4326C1255.53 65.1107 1265.42 149.678 1277.95 256.733C1288.43 346.306 1300.32 447.835 1349.47 554.816C1384.87 631.881 1438.69 696.358 1509.41 746.453C1573.92 792.153 1653.83 826.839 1746.92 849.547C2014.15 914.735 2343.34 871.752 2572.43 824.216C2722.32 793.109 2844.91 757.045 2921.35 732.277C3008.68 703.969 3084.28 674.464 3118.64 655.274L3117.88 654.318L3117.88 654.314Z" fill="url(#paint36_linear_798_3404)"/>
</g>
<g opacity="0.59">
<path d="M3125.05 645.538C3098.36 660.014 3033.12 687.149 2930.05 719.893C2853.73 744.141 2731.48 779.38 2582.43 809.559C2353.32 855.944 2023.4 897.43 1752.79 831.609C1551.55 782.661 1412.65 681.325 1339.96 530.414C1288.76 424.127 1271.5 326.113 1256.27 239.631C1246.79 185.789 1238.6 139.296 1223.67 100.642C1209.38 63.6481 1190 37.5476 1163.29 19.608C1159.37 16.9767 1155.29 14.52 1151.06 12.2273C1120.65 -4.18642 1081.16 -12.2825 1030.32 -12.516C976.801 -12.7648 910.529 -4.36083 827.732 13.1759C625.821 55.9446 505.231 46.2421 411.477 -20.2893C309.806 -92.4504 235.245 -234.575 162.166 -495.513L160.745 -495.203C197.207 -365.012 234.197 -264.785 273.835 -188.794C314.198 -111.416 358.898 -55.9994 410.506 -19.3733C460.343 16.0008 518.815 35.2588 589.241 39.4983C653.004 43.3338 728.888 35.3371 828.055 14.3372C910.732 -3.17344 976.87 -11.5694 1030.26 -11.3136C1080.82 -11.0765 1120.06 -3.04255 1150.23 13.24C1221.72 51.838 1236.34 134.807 1254.83 239.842C1270.07 326.386 1287.34 424.476 1338.6 530.886C1376.62 609.804 1433.23 675.84 1506.85 727.162C1573.93 773.928 1656.52 809.457 1752.34 832.754C2023.26 898.651 2353.44 857.144 2582.74 810.717C2731.86 780.526 2854.18 745.27 2930.54 721.004C3016.85 693.578 3091.68 665.041 3125.82 646.521L3125.05 645.523L3125.05 645.538Z" fill="url(#paint37_linear_798_3404)"/>
</g>
<g opacity="0.62">
<path d="M3132.22 636.63C3105.65 650.595 3040.98 676.813 2939.13 708.51C2862.85 732.254 2740.79 766.704 2592.48 795.969C2363.08 841.247 2032.06 881.228 1757.89 814.552C1551.09 764.264 1406.86 660.563 1329.23 506.33C1276.5 401.562 1253.13 303.353 1234.37 224.438C1221.61 170.829 1210.6 124.533 1193.61 86.6372C1178.11 52.0743 1158.66 27.39 1133.17 10.2664C1128.1 6.86189 1122.81 3.76246 1117.24 0.939941C1087.01 -14.4224 1048.49 -21.8476 999.481 -21.7488C948.241 -21.6454 885.13 -13.3739 806.535 3.54457C640.451 39.2995 508.114 48.4134 402.221 -23.3847C300.52 -92.3137 224.6 -231.686 148.377 -489.393L146.906 -489.053C185.095 -359.943 223.415 -260.839 264.056 -186.082C305.003 -110.764 349.871 -57.2306 401.232 -22.4188C426.547 -5.25397 453.297 7.4399 482.959 16.3709C511.507 24.9722 542.06 29.8695 576.356 31.3469C637.132 33.9611 710.372 25.5085 806.861 4.73437C959.86 -28.2022 1055.33 -29.0482 1116.41 1.99616C1188.63 38.6909 1207.19 116.722 1232.88 224.716C1251.67 303.687 1275.05 401.961 1327.84 506.84C1368.46 587.532 1427.82 655.084 1504.27 707.621C1505.97 708.793 1507.7 709.962 1509.43 711.123C1578.05 757.214 1661.44 792.4 1757.43 815.737C1875.98 844.566 2015.52 855.912 2172.17 849.457C2302.74 844.076 2444.26 826.487 2592.8 797.165C2741.18 767.877 2863.31 733.411 2939.63 709.658C3041.59 677.927 3106.37 651.66 3133.01 637.66L3132.24 636.614L3132.22 636.63Z" fill="url(#paint38_linear_798_3404)"/>
</g>
<g opacity="0.66">
<path d="M3139.39 627.611C3112.87 641.084 3048.7 666.4 2948.1 697.056C2871.79 720.305 2749.85 753.977 2602.24 782.347C2372.42 826.517 2040.19 864.966 1762.55 797.275C1550.51 745.577 1401.14 639.563 1318.6 482.158C1265.14 380.212 1236.88 286.727 1214.18 211.614C1199.44 162.88 1186.72 120.787 1170.39 85.4912C1152.52 46.8724 1131.89 20.3966 1105.46 2.16357C1104.95 1.81895 1104.43 1.46481 1103.92 1.12019C1074.42 -18.6956 1036.34 -29.148 987.576 -30.8221C935.49 -32.6172 869.369 -24.5455 785.442 -6.15556C619.173 30.2737 495.543 39.5702 393.092 -26.538C291.28 -92.2175 214.03 -228.821 134.724 -483.303L133.208 -482.941C173.097 -354.926 212.744 -256.952 254.418 -183.413C295.936 -110.149 340.97 -58.4933 392.103 -25.5097C417.106 -9.37442 443.43 2.3927 472.574 10.4593C500.412 18.1664 530.183 22.3164 563.606 23.147C622.047 24.5968 690.57 15.9466 785.79 -4.91515C947.653 -40.3752 1042.71 -38.3079 1102.87 2.09693C1103.39 2.44996 1103.92 2.803 1104.43 3.16668C1161.43 42.4869 1182.92 113.578 1212.67 211.972C1235.38 287.127 1263.65 380.668 1317.17 482.71C1360.38 565.1 1422.43 634.12 1501.6 687.844C1502.41 688.386 1503.22 688.933 1504.03 689.475C1575.56 737.52 1662.35 774.2 1762.06 798.509C1882.3 827.82 2023.18 839.75 2180.78 833.958C2311.87 829.137 2453.78 812.198 2602.55 783.605C2750.24 755.218 2872.25 721.53 2948.59 698.268C3049.3 667.582 3113.59 642.216 3140.17 628.708L3139.39 627.62L3139.39 627.611Z" fill="url(#paint39_linear_798_3404)"/>
</g>
<g opacity="0.69">
<path d="M3146.56 618.585C3121.25 630.988 3056.46 655.967 2957.17 685.557C2880.89 708.288 2759.15 741.149 2612.36 768.587C2382.31 811.591 2049.06 848.436 1767.92 779.761C1550.59 726.673 1395.84 618.408 1307.98 457.978C1255.39 360.963 1223.14 273.354 1197.23 202.962C1160.55 103.322 1134.03 31.2634 1075.86 -7.80932C1075.74 -7.89336 1075.61 -7.97745 1075.48 -8.0657C1014.69 -48.6492 921.646 -50.9779 764.369 -15.8529C598.342 21.2239 482.879 30.8507 383.983 -29.6805C333.275 -60.7208 288.225 -110.335 246.259 -181.366C203.587 -253.593 162.648 -350.37 121.102 -477.216L119.549 -476.825C161.12 -349.901 202.101 -253.051 244.815 -180.751C286.887 -109.533 332.087 -59.7646 382.999 -28.6046C407.678 -13.4975 433.588 -2.65815 462.219 4.54831C489.332 11.3679 518.339 14.774 550.894 14.9525C606.745 15.2627 670.699 6.4344 764.75 -14.5726C921.477 -49.5772 1014.1 -47.3182 1074.46 -7.01508C1074.58 -6.93104 1074.71 -6.84275 1074.83 -6.76291C1132.65 32.0702 1159.11 103.961 1195.7 203.398C1221.63 273.827 1253.89 361.478 1306.52 458.566C1352.36 542.255 1416.95 612.468 1498.51 667.249C1498.83 667.467 1499.15 667.678 1499.47 667.896C1573.97 717.74 1664.12 755.811 1767.43 781.049C1889.36 810.836 2031.54 823.349 2190.03 818.234C2321.58 813.993 2463.78 797.733 2612.68 769.894C2759.55 742.438 2881.36 709.56 2957.68 686.816C3057.08 657.191 3121.98 632.163 3147.35 619.73L3146.56 618.599L3146.56 618.585Z" fill="url(#paint40_linear_798_3404)"/>
</g>
<g opacity="0.72">
<path d="M3153.73 609.563C3128.29 621.546 3063.83 645.665 2965.85 674.208C2889.4 696.477 2767.57 728.596 2621.34 755.152C2390.54 797.062 2055.7 832.301 1771.19 762.193C1549.41 707.543 1390 597.06 1297.38 433.81C1246.86 343.977 1213.25 266.71 1183.6 198.538C1139.34 96.7862 1107.22 22.9696 1048.57 -16.4362C1047.94 -16.8606 1047.31 -17.2808 1046.67 -17.6945C1015.98 -37.7221 978.09 -48.1712 930.837 -49.62C882.229 -51.1155 820.891 -43.2422 743.316 -25.5505C577.8 12.1956 470.067 22.2239 374.892 -32.8149C324.396 -62.0118 279.198 -109.746 236.7 -178.743C192.969 -249.735 150.703 -345.383 107.486 -471.14L105.895 -470.721C149.131 -344.88 191.439 -249.159 235.219 -178.09C277.841 -108.894 323.212 -61.0081 373.913 -31.6916C420.976 -4.47958 473.172 7.74382 538.183 6.76397C603.679 5.78046 675.672 -8.72293 743.706 -24.2375C894.454 -58.6233 984.741 -56.3417 1045.61 -16.6121C1105.12 22.2259 1137.4 96.3974 1182.04 199.04C1211.71 267.239 1245.33 344.539 1295.87 434.427C1344.39 519.957 1411.85 591.755 1496.3 647.745C1572.96 698.589 1665.27 737.533 1770.65 763.509C1894.24 793.963 2037.81 807.186 2197.38 802.82C2329.55 799.201 2472.29 783.615 2621.63 756.498C2767.95 729.929 2889.85 697.794 2966.35 675.511C3064.44 646.938 3129.01 622.774 3154.51 610.762L3153.73 609.578L3153.73 609.563Z" fill="url(#paint41_linear_798_3404)"/>
</g>
<g opacity="0.76">
<path d="M3160.9 600.538C3106.58 625.054 2897.46 694.66 2629.86 741.799C2398.14 782.614 2061.49 816.201 1773.62 744.429C1547.83 688.136 1384.03 575.489 1286.76 409.631C1240.85 330.74 1206.59 262.286 1176.36 201.886C1148.84 146.887 1125.08 99.3927 1100.77 61.2937C1074.54 20.1655 1048.95 -7.65395 1020.23 -26.2882C988.157 -47.0886 951.249 -57.4964 904.085 -59.0396C856.869 -60.5826 797.392 -52.8079 722.238 -35.26C581.422 -2.38956 465.764 18.4358 365.77 -35.9478C315.493 -63.2879 270.135 -109.142 227.104 -176.123C182.296 -245.873 138.704 -340.393 93.8457 -465.069L92.2044 -464.622C137.095 -339.853 180.724 -245.255 225.586 -175.423C268.748 -108.239 314.285 -62.2291 364.797 -34.758C410.963 -9.65408 462.015 0.947907 525.454 -1.40409C582.676 -3.52485 645.664 -15.9312 722.644 -33.9007C870.466 -68.4051 956.364 -65.878 1019.14 -25.1591C1080.93 14.9234 1118.24 89.5229 1174.77 202.473C1205 262.886 1239.27 331.358 1285.2 410.286C1336.18 497.209 1406.03 570.253 1492.79 627.382C1571.5 679.205 1665.8 719.038 1773.06 745.78C1898.3 777.003 2043.3 791.016 2204.04 787.435C2336.89 784.471 2480.25 769.58 2630.15 743.179C2897.94 696.012 3107.29 626.322 3161.67 601.776L3160.9 600.543L3160.9 600.538Z" fill="url(#paint42_linear_798_3404)"/>
</g>
<g opacity="0.79">
<path d="M3168.09 591.508C3130.71 607.613 3019.92 644.81 2867.92 681.302C2737.67 712.573 2536.94 752.681 2320.36 766.199C2052.74 782.898 1721.38 760.27 1481.49 599.148C1400.69 544.88 1330.29 474.935 1276.15 385.458C1238.8 323.322 1207.61 267.694 1180.09 218.617C1110.24 94.0585 1063.93 11.457 998.966 -32.1739C998.497 -32.489 998.028 -32.804 997.559 -33.1191C963.88 -55.3569 926.3 -66.5824 879.29 -68.4427C832.393 -70.2994 775.803 -62.8426 701.195 -44.9691C554.946 -9.93646 451.951 9.40381 356.695 -39.0637C306.626 -64.5368 261.107 -108.519 217.553 -173.506C171.648 -242.004 126.735 -335.39 80.2442 -459.016L78.5648 -458.541C125.088 -334.823 170.045 -241.344 216.01 -172.77C259.708 -107.572 305.405 -63.4335 355.739 -37.8275C400.998 -14.8016 450.9 -5.8249 512.784 -9.57427C570.76 -13.0899 635.2 -27.6687 701.639 -43.5846C846.128 -78.1971 931.532 -74.8304 996.44 -31.9825C996.903 -31.6717 997.372 -31.3566 997.835 -31.0457C1062.5 12.3878 1108.75 94.8658 1178.5 219.26C1206.03 268.352 1237.22 323.989 1274.59 386.143C1323.66 467.248 1388.67 536.637 1467.81 592.401C1540.25 643.435 1626.13 684.198 1723.09 713.551C1889.1 763.818 2090.08 782.017 2320.43 767.643C2537.16 754.12 2738.02 713.985 2868.36 682.692C3020.49 646.168 3131.41 608.914 3168.85 592.789L3168.09 591.508Z" fill="url(#paint43_linear_798_3404)"/>
</g>
<g opacity="0.83">
<path d="M3175.26 582.482C3136.58 598.317 3025 634.511 2876.21 669.321C2745.33 699.939 2543.74 739.038 2326.62 751.393C1966.24 771.902 1489.62 720.871 1265.56 361.29C1243.41 325.552 1223.43 292.799 1204.12 261.121C1113.2 112.012 1053.14 13.5037 981.195 -36.578C944.659 -62.0255 905.36 -75.1013 857.535 -77.752C810.875 -80.3422 754.507 -73.0079 680.133 -54.6631C548.278 -22.154 444.133 3.52879 347.595 -42.1418C245.877 -90.2668 159.221 -216.963 66.622 -452.941L64.8991 -452.434C113.038 -329.75 159.328 -237.395 206.408 -170.081C250.638 -106.844 296.508 -64.5677 346.65 -40.8443C391 -19.8621 439.753 -12.5009 500.083 -17.6907C555.866 -22.4889 616.453 -37.4245 680.586 -53.2365C823.744 -88.5349 907.328 -84.2678 976.61 -37.7348C977.742 -36.9745 978.863 -36.2036 979.992 -35.4189C1051.66 14.4726 1111.66 112.882 1202.48 261.837C1221.79 293.515 1241.77 326.277 1263.92 362.019C1315.15 444.224 1382.21 514.666 1463.22 571.405C1537.37 623.325 1624.85 664.922 1723.27 695.077C1891.61 746.645 2094.61 766.096 2326.66 752.889C2543.94 740.523 2745.66 701.406 2876.63 670.766C3025.54 635.925 3137.25 599.684 3176 583.823L3175.25 582.492L3175.26 582.482Z" fill="url(#paint44_linear_798_3404)"/>
</g>
<g opacity="0.86">
<path d="M3182.45 573.449C3141.98 589.1 3029.25 624.356 2884.51 657.335C2753 687.301 2550.53 725.377 2332.88 736.583C2060.25 750.622 1720.62 723.567 1469.65 555.007C1386.45 499.129 1313.03 427.748 1254.96 337.12C1128.62 139.11 1053.18 24.1441 971.698 -36.3295C930.444 -66.9487 887.985 -83.0375 838.09 -86.9478C790.281 -90.6947 735.075 -83.7324 659.097 -64.3786C653.847 -63.0444 648.637 -61.7094 643.473 -60.3885C521.44 -29.1724 425.052 -4.52014 332.596 -47.9035C284.133 -70.6427 239.29 -111.336 195.495 -172.292C148.348 -237.921 101.751 -327.742 53.0329 -446.887L51.2719 -446.352C100.028 -327.109 146.681 -237.197 193.895 -171.479C237.847 -110.294 282.904 -69.438 331.638 -46.5711C374.399 -26.5046 420.749 -19.58 477.517 -24.781C528.819 -29.4776 584.754 -43.7846 643.97 -58.9327C649.134 -60.2537 654.344 -61.5887 659.595 -62.9228C807.994 -100.734 892.246 -93.2175 970.441 -35.1797C1051.7 25.1279 1127.08 140.008 1253.33 337.869C1306.7 421.167 1375.8 492.669 1458.71 550.385C1534.54 603.174 1623.64 645.633 1723.53 676.578C1894.19 729.442 2099.23 750.148 2332.94 738.114C2427.37 733.251 2526.77 722.971 2628.4 707.555C2713.04 694.72 2799.36 678.316 2884.96 658.81C3029.82 625.805 3142.68 590.503 3183.21 574.831L3182.47 573.447L3182.45 573.449Z" fill="url(#paint45_linear_798_3404)"/>
</g>
<g opacity="0.9">
<path d="M3189.63 564.415C3152.7 577.835 3043.13 612.013 2892.8 645.349C2703.26 687.38 2511.81 713.806 2339.13 721.778C1807.3 746.325 1438.97 608.773 1244.36 312.958C1174.09 205.825 1122.45 133.187 1076.92 77.4557C1029.12 18.9544 987.482 -21.4294 946.488 -48.9619C944.431 -50.3435 942.378 -51.6871 940.327 -53.0022C897.154 -80.6892 853.843 -94.7523 804.018 -97.2561C758.477 -99.5447 707.287 -92.3993 638.045 -74.0824C627.749 -71.3573 617.514 -68.5997 607.622 -65.9328C499.758 -36.872 406.603 -11.7749 317.23 -53.5339C270.152 -75.5298 226.13 -114.905 182.644 -173.904C135.45 -237.94 88.5957 -325.257 39.4189 -440.838L37.6208 -440.265C86.8425 -324.583 133.747 -237.17 181.014 -173.05C224.662 -113.826 268.898 -74.2891 316.251 -52.1614C357.549 -32.8638 401.628 -26.2877 454.962 -31.4498C502.938 -36.0985 554.049 -49.8661 608.157 -64.4424C618.05 -67.1093 628.279 -69.8616 638.57 -72.5814C755.737 -103.575 846.891 -110.904 939.126 -51.7523C1030.88 7.11465 1123.31 131.73 1242.68 313.745C1298.2 398.143 1369.34 470.697 1454.13 529.387C1531.67 583.057 1622.37 626.355 1723.72 658.097C1896.69 712.262 2103.77 734.218 2339.17 723.351C2434.07 718.968 2533.97 709.179 2636.09 694.25C2720.78 681.872 2807.28 665.931 2893.22 646.874C3043.67 613.513 3153.36 579.294 3190.34 565.855L3189.63 564.424L3189.63 564.415Z" fill="url(#paint46_linear_798_3404)"/>
</g>
<g opacity="0.93">
<path d="M3196.81 555.374C3153.91 569.903 3043.33 602.678 2901.1 633.36C2707.9 675.027 2520.94 699.792 2345.4 706.967C1809.73 728.865 1435.73 588.172 1233.78 288.791C1166.26 188.49 1108.13 111.79 1056.07 54.3181C1003.92 -3.26037 955.814 -43.802 909.007 -69.6305C864.658 -94.102 819.191 -106.49 769.999 -107.512C726.812 -108.409 679.637 -101.09 617.022 -83.7847C602.968 -79.899 589.089 -75.9053 575.676 -72.0432C475.865 -43.3067 389.66 -18.4895 302.82 -58.4417C256.845 -79.5903 213.445 -117.657 170.135 -174.807C122.758 -237.324 75.5604 -322.364 25.8442 -434.791L24.0026 -434.186C73.7637 -321.657 121.017 -236.527 168.467 -173.916C211.951 -116.542 255.572 -78.3095 301.822 -57.029C389.403 -16.7306 475.995 -41.662 576.261 -70.5289C589.674 -74.391 603.547 -78.3889 617.59 -82.264C723.562 -111.553 813.481 -120.382 907.885 -68.2924C1000.74 -17.0565 1097.69 89.9772 1232.08 289.604C1289.75 375.101 1362.93 448.702 1449.6 508.371C1528.84 562.927 1621.14 607.068 1723.96 639.595C1899.26 695.056 2108.36 718.258 2345.44 708.572C2440.83 704.671 2541.22 695.372 2643.84 680.928C2728.57 669.003 2815.27 653.52 2901.55 634.911C3043.89 604.209 3154.57 571.4 3197.53 556.856L3196.84 555.366L3196.81 555.374Z" fill="url(#paint47_linear_798_3404)"/>
</g>
<g opacity="0.97">
<path d="M3204 546.339C3134.45 568.093 2766.47 677.366 2351.66 692.159C1812.13 711.397 1432.46 567.558 1223.19 264.63C1115.23 108.201 1021.74 4.98656 933.705 -54.135C914.813 -66.8234 896.181 -77.4764 877.701 -86.1941C831.688 -107.903 785.339 -118.206 736.008 -117.696C695.249 -117.275 652.068 -109.805 595.993 -93.4796C579.379 -88.6453 562.996 -83.5308 547.152 -78.5884C364.284 -21.5582 219.852 23.4891 12.2591 -428.726L10.3794 -428.093C105.972 -219.852 194.285 -103.254 288.306 -61.1484C327.426 -43.6241 367.973 -38.1882 415.917 -44.0346C458.616 -49.2393 501.932 -62.7507 547.791 -77.0556C563.623 -81.9968 579.996 -87.1007 596.593 -91.9286C775.019 -143.87 934.332 -150.533 1221.45 265.495C1281.27 352.091 1356.5 426.744 1445.05 487.386C1525.97 542.81 1619.88 587.808 1724.17 621.126C1901.78 677.878 2112.9 702.334 2351.68 693.819C2766.79 679.011 3135.06 569.658 3204.66 547.884L3204.01 546.343L3204 546.339Z" fill="url(#paint48_linear_798_3404)"/>
</g>
<path d="M3211.2 537.629L3205.71 539.201C2906.67 624.88 1998.07 838.757 1448.02 469.334C1358.74 409.372 1278.95 334.102 1212.69 240.37C1137.18 133.556 1063.66 49.3796 994.164 -9.826C931.967 -62.8155 872.443 -97.1091 812.187 -114.664C762.427 -129.164 711.871 -132.039 657.636 -123.446C609.766 -115.871 565.047 -100.576 521.8 -85.7774C438.636 -57.3331 360.088 -30.4673 276.854 -66.3013C232.352 -85.4623 189.623 -120.929 146.215 -174.722C98.035 -234.442 49.758 -315.647 -1.36936 -422.978L-3.28575 -422.308C208.866 23.0725 354.217 -26.6452 522.524 -84.2146C610.247 -114.222 700.952 -145.243 811.437 -113.06C937.68 -76.2793 1068.36 39.62 1210.91 241.267C1272.14 327.882 1348.32 402.832 1437.32 464.027C1518.74 520.003 1612.79 565.791 1716.84 600.087C1894.37 658.607 2104.7 685.356 2342 679.593C2517.46 675.333 2705.34 653.547 2900.42 614.847C3054.79 584.221 3168.85 551.544 3206.32 540.803L3211.81 539.232L3211.2 537.634L3211.2 537.629Z" fill="url(#paint49_linear_798_3404)"/>
</g>
<defs>
<linearGradient id="paint0_linear_798_3404" x1="-51.6054" y1="-488.139" x2="1988.03" y2="1552.95" gradientUnits="userSpaceOnUse">
<stop stop-color="#F3FBFE"/>
<stop offset="0.37" stop-color="#F9F5FA"/>
<stop offset="0.39" stop-color="#FAF5FA"/>
<stop offset="0.7" stop-color="#F3FBFE"/>
<stop offset="0.83" stop-color="#FBFDFE"/>
<stop offset="1" stop-color="white"/>
</linearGradient>
<linearGradient id="paint1_linear_798_3404" x1="-45.0647" y1="-481.638" x2="1978.14" y2="1543.16" gradientUnits="userSpaceOnUse">
<stop stop-color="#E7F8FD"/>
<stop offset="0.24" stop-color="#EDF1F8"/>
<stop offset="0.39" stop-color="#F5EAF4"/>
<stop offset="0.7" stop-color="#E7F8FD"/>
<stop offset="0.76" stop-color="#F1FBFD"/>
<stop offset="0.87" stop-color="#FBFEFE"/>
<stop offset="1" stop-color="white"/>
</linearGradient>
<linearGradient id="paint2_linear_798_3404" x1="-41.1612" y1="-472.319" x2="1965.39" y2="1536.02" gradientUnits="userSpaceOnUse">
<stop stop-color="#DBF4FD"/>
<stop offset="0.19" stop-color="#E1EDF8"/>
<stop offset="0.39" stop-color="#EFE0EF"/>
<stop offset="0.7" stop-color="#DBF4FD"/>
<stop offset="0.72" stop-color="#E1F5FD"/>
<stop offset="0.8" stop-color="#F1FAFE"/>
<stop offset="0.89" stop-color="#FBFEFE"/>
<stop offset="1" stop-color="white"/>
</linearGradient>
<linearGradient id="paint3_linear_798_3404" x1="-37.2469" y1="-463.02" x2="1952.68" y2="1528.87" gradientUnits="userSpaceOnUse">
<stop stop-color="#CEF1FC"/>
<stop offset="0.15" stop-color="#D4EAF7"/>
<stop offset="0.36" stop-color="#E7D8EB"/>
<stop offset="0.39" stop-color="#EAD6EA"/>
<stop offset="0.7" stop-color="#CEF1FC"/>
<stop offset="0.75" stop-color="#E1F6FD"/>
<stop offset="0.82" stop-color="#F1FBFE"/>
<stop offset="0.9" stop-color="#FBFEFE"/>
<stop offset="1" stop-color="white"/>
</linearGradient>
<linearGradient id="paint4_linear_798_3404" x1="-33.335" y1="-453.732" x2="1939.99" y2="1521.72" gradientUnits="userSpaceOnUse">
<stop stop-color="#C2EDFB"/>
<stop offset="0.13" stop-color="#C8E6F6"/>
<stop offset="0.31" stop-color="#DBD5EA"/>
<stop offset="0.39" stop-color="#E5CCE4"/>
<stop offset="0.7" stop-color="#C2EDFB"/>
<stop offset="0.71" stop-color="#C9EFFB"/>
<stop offset="0.78" stop-color="#E1F6FD"/>
<stop offset="0.84" stop-color="#F1FBFE"/>
<stop offset="0.91" stop-color="#FBFEFE"/>
<stop offset="1" stop-color="white"/>
</linearGradient>
<linearGradient id="paint5_linear_798_3404" x1="-29.3898" y1="-444.498" x2="1927.34" y2="1514.53" gradientUnits="userSpaceOnUse">
<stop stop-color="#B6EAFA"/>
<stop offset="0.11" stop-color="#BCE3F5"/>
<stop offset="0.27" stop-color="#CFD1E9"/>
<stop offset="0.39" stop-color="#E0C1DF"/>
<stop offset="0.7" stop-color="#B6EAFA"/>
<stop offset="0.73" stop-color="#C9EFFB"/>
<stop offset="0.79" stop-color="#E1F6FC"/>
<stop offset="0.85" stop-color="#F1FBFE"/>
<stop offset="0.92" stop-color="#FBFEFE"/>
<stop offset="1" stop-color="white"/>
</linearGradient>
<linearGradient id="paint6_linear_798_3404" x1="-25.4698" y1="-435.239" x2="1914.68" y2="1507.37" gradientUnits="userSpaceOnUse">
<stop stop-color="#AAE6FA"/>
<stop offset="0.1" stop-color="#B0DFF5"/>
<stop offset="0.25" stop-color="#C3CDE9"/>
<stop offset="0.39" stop-color="#DBB7DA"/>
<stop offset="0.7" stop-color="#ABE6FA"/>
<stop offset="0.75" stop-color="#C9EFFB"/>
<stop offset="0.8" stop-color="#E1F6FD"/>
<stop offset="0.86" stop-color="#F1FBFE"/>
<stop offset="0.92" stop-color="#FBFEFE"/>
<stop offset="1" stop-color="white"/>
</linearGradient>
<linearGradient id="paint7_linear_798_3404" x1="-21.5449" y1="-425.998" x2="1902.04" y2="1500.2" gradientUnits="userSpaceOnUse">
<stop stop-color="#9EE2F9"/>
<stop offset="0.1" stop-color="#A4DBF4"/>
<stop offset="0.23" stop-color="#B7C9E8"/>
<stop offset="0.39" stop-color="#D5ADD4"/>
<stop offset="0.7" stop-color="#9EE2F9"/>
<stop offset="0.72" stop-color="#ABE5F9"/>
<stop offset="0.76" stop-color="#C9EEFB"/>
<stop offset="0.81" stop-color="#E1F6FD"/>
<stop offset="0.87" stop-color="#F1FBFE"/>
<stop offset="0.93" stop-color="#FBFEFE"/>
<stop offset="1" stop-color="white"/>
</linearGradient>
<linearGradient id="paint8_linear_798_3404" x1="-17.6152" y1="-416.772" x2="1889.43" y2="1493.02" gradientUnits="userSpaceOnUse">
<stop stop-color="#92DFF8"/>
<stop offset="0.09" stop-color="#98D8F3"/>
<stop offset="0.21" stop-color="#ABC6E7"/>
<stop offset="0.36" stop-color="#C9A8D3"/>
<stop offset="0.39" stop-color="#D0A2CF"/>
<stop offset="0.7" stop-color="#92DFF8"/>
<stop offset="0.73" stop-color="#ABE6F9"/>
<stop offset="0.77" stop-color="#C9EFFB"/>
<stop offset="0.82" stop-color="#E1F6FD"/>
<stop offset="0.87" stop-color="#F1FBFE"/>
<stop offset="0.93" stop-color="#FBFEFE"/>
<stop offset="1" stop-color="white"/>
</linearGradient>
<linearGradient id="paint9_linear_798_3404" x1="-13.6904" y1="-407.553" x2="1876.82" y2="1485.84" gradientUnits="userSpaceOnUse">
<stop stop-color="#86DBF7"/>
<stop offset="0.08" stop-color="#8CD4F2"/>
<stop offset="0.2" stop-color="#9FC2E6"/>
<stop offset="0.33" stop-color="#BDA5D2"/>
<stop offset="0.39" stop-color="#CB98CA"/>
<stop offset="0.7" stop-color="#86DBF7"/>
<stop offset="0.74" stop-color="#ABE6F9"/>
<stop offset="0.78" stop-color="#C9EFFB"/>
<stop offset="0.83" stop-color="#E1F6FD"/>
<stop offset="0.88" stop-color="#F1FBFE"/>
<stop offset="0.93" stop-color="#FBFEFE"/>
<stop offset="1" stop-color="white"/>
</linearGradient>
<linearGradient id="paint10_linear_798_3404" x1="-9.73259" y1="-398.377" x2="1864.27" y2="1478.63" gradientUnits="userSpaceOnUse">
<stop stop-color="#79D8F7"/>
<stop offset="0.08" stop-color="#7FD1F2"/>
<stop offset="0.18" stop-color="#92BFE6"/>
<stop offset="0.31" stop-color="#B0A2D2"/>
<stop offset="0.39" stop-color="#C68EC4"/>
<stop offset="0.7" stop-color="#79D8F7"/>
<stop offset="0.71" stop-color="#85DBF7"/>
<stop offset="0.75" stop-color="#AAE6F9"/>
<stop offset="0.79" stop-color="#C9EFFB"/>
<stop offset="0.84" stop-color="#E1F6FD"/>
<stop offset="0.88" stop-color="#F1FBFE"/>
<stop offset="0.94" stop-color="#FBFEFE"/>
<stop offset="1" stop-color="white"/>
</linearGradient>
<linearGradient id="paint11_linear_798_3404" x1="-5.80915" y1="-389.18" x2="1851.69" y2="1471.45" gradientUnits="userSpaceOnUse">
<stop stop-color="#6DD4F6"/>
<stop offset="0.07" stop-color="#73CDF1"/>
<stop offset="0.17" stop-color="#86BCE5"/>
<stop offset="0.29" stop-color="#A49FD1"/>
<stop offset="0.39" stop-color="#C184BF"/>
<stop offset="0.7" stop-color="#6DD4F6"/>
<stop offset="0.72" stop-color="#85DBF7"/>
<stop offset="0.76" stop-color="#AAE6F9"/>
<stop offset="0.8" stop-color="#C9EFFB"/>
<stop offset="0.84" stop-color="#E1F6FD"/>
<stop offset="0.89" stop-color="#F1FBFE"/>
<stop offset="0.94" stop-color="#FBFEFE"/>
<stop offset="1" stop-color="white"/>
</linearGradient>
<linearGradient id="paint12_linear_798_3404" x1="-1.87253" y1="-380.006" x2="1839.14" y2="1464.26" gradientUnits="userSpaceOnUse">
<stop stop-color="#61D1F5"/>
<stop offset="0.07" stop-color="#67CAF0"/>
<stop offset="0.17" stop-color="#7AB8E4"/>
<stop offset="0.28" stop-color="#989BD1"/>
<stop offset="0.39" stop-color="#BC79BA"/>
<stop offset="0.7" stop-color="#61D1F5"/>
<stop offset="0.73" stop-color="#85DBF7"/>
<stop offset="0.77" stop-color="#AAE6F9"/>
<stop offset="0.81" stop-color="#C9EFFB"/>
<stop offset="0.85" stop-color="#E1F6FD"/>
<stop offset="0.89" stop-color="#F1FBFE"/>
<stop offset="0.94" stop-color="#FBFEFE"/>
<stop offset="1" stop-color="white"/>
</linearGradient>
<linearGradient id="paint13_linear_798_3404" x1="2.05851" y1="-370.836" x2="1826.6" y2="1457.06" gradientUnits="userSpaceOnUse">
<stop stop-color="#55CDF4"/>
<stop offset="0.07" stop-color="#5BC6EF"/>
<stop offset="0.16" stop-color="#6EB4E3"/>
<stop offset="0.27" stop-color="#8C97CF"/>
<stop offset="0.39" stop-color="#B66FB4"/>
<stop offset="0.7" stop-color="#59CEF4"/>
<stop offset="0.74" stop-color="#85DBF7"/>
<stop offset="0.77" stop-color="#AAE6F9"/>
<stop offset="0.81" stop-color="#C9EFFB"/>
<stop offset="0.85" stop-color="#E1F6FD"/>
<stop offset="0.9" stop-color="#F1FBFE"/>
<stop offset="0.94" stop-color="#FBFEFE"/>
<stop offset="1" stop-color="white"/>
</linearGradient>
<linearGradient id="paint14_linear_798_3404" x1="5.995" y1="-361.684" x2="1814.09" y2="1449.86" gradientUnits="userSpaceOnUse">
<stop stop-color="#49C9F4"/>
<stop offset="0.06" stop-color="#4FC2EF"/>
<stop offset="0.15" stop-color="#62B0E3"/>
<stop offset="0.26" stop-color="#8093CF"/>
<stop offset="0.37" stop-color="#AA6BB3"/>
<stop offset="0.39" stop-color="#B165AF"/>
<stop offset="0.7" stop-color="#49C9F4"/>
<stop offset="0.71" stop-color="#59CDF4"/>
<stop offset="0.74" stop-color="#84DAF7"/>
<stop offset="0.78" stop-color="#AAE5F9"/>
<stop offset="0.82" stop-color="#C9EFFB"/>
<stop offset="0.86" stop-color="#E1F6FD"/>
<stop offset="0.9" stop-color="#F1FBFE"/>
<stop offset="0.94" stop-color="#FBFEFE"/>
<stop offset="1" stop-color="white"/>
</linearGradient>
<linearGradient id="paint15_linear_798_3404" x1="9.92652" y1="-352.528" x2="1801.58" y2="1442.67" gradientUnits="userSpaceOnUse">
<stop stop-color="#3DC6F3"/>
<stop offset="0.06" stop-color="#43BFEE"/>
<stop offset="0.14" stop-color="#56ADE2"/>
<stop offset="0.24" stop-color="#748FCE"/>
<stop offset="0.35" stop-color="#9E67B2"/>
<stop offset="0.39" stop-color="#AC5AAA"/>
<stop offset="0.7" stop-color="#3DC6F3"/>
<stop offset="0.72" stop-color="#59CEF4"/>
<stop offset="0.75" stop-color="#84DBF7"/>
<stop offset="0.79" stop-color="#AAE6F9"/>
<stop offset="0.82" stop-color="#C9EFFB"/>
<stop offset="0.86" stop-color="#E1F6FD"/>
<stop offset="0.9" stop-color="#F1FBFE"/>
<stop offset="0.94" stop-color="#FBFEFE"/>
<stop offset="1" stop-color="white"/>
</linearGradient>
<linearGradient id="paint16_linear_798_3404" x1="13.8568" y1="-343.392" x2="1789.08" y2="1435.46" gradientUnits="userSpaceOnUse">
<stop stop-color="#31C2F2"/>
<stop offset="0.06" stop-color="#37BBED"/>
<stop offset="0.14" stop-color="#4AA9E1"/>
<stop offset="0.23" stop-color="#688CCD"/>
<stop offset="0.34" stop-color="#9263B1"/>
<stop offset="0.39" stop-color="#A750A4"/>
<stop offset="0.7" stop-color="#31C2F2"/>
<stop offset="0.72" stop-color="#59CDF4"/>
<stop offset="0.76" stop-color="#84DAF7"/>
<stop offset="0.79" stop-color="#AAE6F9"/>
<stop offset="0.83" stop-color="#C9EFFB"/>
<stop offset="0.86" stop-color="#E0F6FD"/>
<stop offset="0.9" stop-color="#F1FBFE"/>
<stop offset="0.95" stop-color="#FBFEFE"/>
<stop offset="1" stop-color="white"/>
</linearGradient>
<linearGradient id="paint17_linear_798_3404" x1="17.894" y1="-334.37" x2="1776.71" y2="1428.16" gradientUnits="userSpaceOnUse">
<stop stop-color="#24BFF1"/>
<stop offset="0.06" stop-color="#2AB8EC"/>
<stop offset="0.13" stop-color="#3DA6E0"/>
<stop offset="0.22" stop-color="#5B89CC"/>
<stop offset="0.33" stop-color="#8561B1"/>
<stop offset="0.39" stop-color="#A2469F"/>
<stop offset="0.7" stop-color="#26BFF1"/>
<stop offset="0.73" stop-color="#58CEF4"/>
<stop offset="0.76" stop-color="#84DBF7"/>
<stop offset="0.8" stop-color="#AAE6F9"/>
<stop offset="0.83" stop-color="#C9EFFB"/>
<stop offset="0.87" stop-color="#E0F6FD"/>
<stop offset="0.91" stop-color="#F1FBFE"/>
<stop offset="0.95" stop-color="#FBFEFE"/>
<stop offset="1" stop-color="white"/>
</linearGradient>
<linearGradient id="paint18_linear_798_3404" x1="21.7889" y1="-325.212" x2="1764.2" y2="1420.99" gradientUnits="userSpaceOnUse">
<stop stop-color="#18BBF1"/>
<stop offset="0.05" stop-color="#1EB4EC"/>
<stop offset="0.13" stop-color="#31A2E0"/>
<stop offset="0.22" stop-color="#4F85CC"/>
<stop offset="0.32" stop-color="#795DB0"/>
<stop offset="0.39" stop-color="#9C3C9A"/>
<stop offset="0.7" stop-color="#18BBF1"/>
<stop offset="0.71" stop-color="#25BFF1"/>
<stop offset="0.74" stop-color="#58CDF4"/>
<stop offset="0.77" stop-color="#84DBF7"/>
<stop offset="0.8" stop-color="#AAE6F9"/>
<stop offset="0.83" stop-color="#C9EFFB"/>
<stop offset="0.87" stop-color="#E0F6FD"/>
<stop offset="0.91" stop-color="#F1FBFE"/>
<stop offset="0.95" stop-color="#FBFEFE"/>
<stop offset="1" stop-color="white"/>
</linearGradient>
<linearGradient id="paint19_linear_798_3404" x1="25.671" y1="-316.062" x2="1751.71" y2="1413.83" gradientUnits="userSpaceOnUse">
<stop stop-color="#0CB8F0"/>
<stop offset="0.05" stop-color="#12B1EB"/>
<stop offset="0.12" stop-color="#259FDF"/>
<stop offset="0.21" stop-color="#4382CB"/>
<stop offset="0.31" stop-color="#6D59AF"/>
<stop offset="0.39" stop-color="#973194"/>
<stop offset="0.7" stop-color="#0CB8F0"/>
<stop offset="0.71" stop-color="#25BFF1"/>
<stop offset="0.74" stop-color="#58CEF4"/>
<stop offset="0.77" stop-color="#84DBF7"/>
<stop offset="0.81" stop-color="#AAE6F9"/>
<stop offset="0.84" stop-color="#C9EFFB"/>
<stop offset="0.87" stop-color="#E0F6FD"/>
<stop offset="0.91" stop-color="#F1FBFE"/>
<stop offset="0.95" stop-color="#FBFEFE"/>
<stop offset="1" stop-color="white"/>
</linearGradient>
<linearGradient id="paint20_linear_798_3404" x1="29.5617" y1="-306.921" x2="1739.23" y2="1406.66" gradientUnits="userSpaceOnUse">
<stop stop-color="#00B4EF"/>
<stop offset="0.05" stop-color="#06ADEA"/>
<stop offset="0.12" stop-color="#199BDE"/>
<stop offset="0.2" stop-color="#377ECA"/>
<stop offset="0.3" stop-color="#6155AE"/>
<stop offset="0.39" stop-color="#92278F"/>
<stop offset="0.7" stop-color="#00B4EF"/>
<stop offset="0.72" stop-color="#25BFF1"/>
<stop offset="0.75" stop-color="#58CDF4"/>
<stop offset="0.78" stop-color="#84DBF7"/>
<stop offset="0.81" stop-color="#AAE6F9"/>
<stop offset="0.84" stop-color="#C9EFFB"/>
<stop offset="0.88" stop-color="#E0F6FD"/>
<stop offset="0.91" stop-color="#F1FBFE"/>
<stop offset="0.95" stop-color="#FBFEFE"/>
<stop offset="1" stop-color="white"/>
</linearGradient>
<linearGradient id="paint21_linear_798_3404" x1="239.72" y1="-447.821" x2="2249.44" y2="1552.26" gradientUnits="userSpaceOnUse">
<stop stop-color="#F6FCFE"/>
<stop offset="0.51" stop-color="#FBF8FB"/>
<stop offset="1" stop-color="#F6FCFE"/>
</linearGradient>
<linearGradient id="paint22_linear_798_3404" x1="238.806" y1="-453.721" x2="2261.18" y2="1545.17" gradientUnits="userSpaceOnUse">
<stop stop-color="#EDFAFE"/>
<stop offset="0.51" stop-color="#F7F0F7"/>
<stop offset="1" stop-color="#EDF9FE"/>
</linearGradient>
<linearGradient id="paint23_linear_798_3404" x1="237.712" y1="-459.792" x2="2273.25" y2="1537.64" gradientUnits="userSpaceOnUse">
<stop stop-color="#E5F7FD"/>
<stop offset="0.51" stop-color="#F4E9F3"/>
<stop offset="1" stop-color="#E5F7FD"/>
</linearGradient>
<linearGradient id="paint24_linear_798_3404" x1="236.443" y1="-465.857" x2="2285.25" y2="1530.1" gradientUnits="userSpaceOnUse">
<stop stop-color="#DCF5FD"/>
<stop offset="0.51" stop-color="#F0E1F0"/>
<stop offset="1" stop-color="#DCF4FD"/>
</linearGradient>
<linearGradient id="paint25_linear_798_3404" x1="235.152" y1="-471.951" x2="2296.73" y2="1522.63" gradientUnits="userSpaceOnUse">
<stop stop-color="#D3F2FC"/>
<stop offset="0.51" stop-color="#ECDAEC"/>
<stop offset="1" stop-color="#D3F1FC"/>
</linearGradient>
<linearGradient id="paint26_linear_798_3404" x1="233.757" y1="-478.264" x2="2308.83" y2="1514.85" gradientUnits="userSpaceOnUse">
<stop stop-color="#CAEFFC"/>
<stop offset="0.5" stop-color="#E7D2E8"/>
<stop offset="0.51" stop-color="#E8D2E8"/>
<stop offset="1" stop-color="#CAEEFC"/>
</linearGradient>
<linearGradient id="paint27_linear_798_3404" x1="232.258" y1="-484.658" x2="2320.93" y2="1506.98" gradientUnits="userSpaceOnUse">
<stop stop-color="#C1EDFB"/>
<stop offset="0.43" stop-color="#DED0E8"/>
<stop offset="0.51" stop-color="#E5CBE4"/>
<stop offset="1" stop-color="#C1EBFB"/>
</linearGradient>
<linearGradient id="paint28_linear_798_3404" x1="230.748" y1="-491.038" x2="2332.71" y2="1499.42" gradientUnits="userSpaceOnUse">
<stop stop-color="#B9EAFB"/>
<stop offset="0.39" stop-color="#D6CDE6"/>
<stop offset="0.51" stop-color="#E1C3E0"/>
<stop offset="1" stop-color="#B9E9FB"/>
</linearGradient>
<linearGradient id="paint29_linear_798_3404" x1="229.053" y1="-497.6" x2="2344.83" y2="1491.38" gradientUnits="userSpaceOnUse">
<stop stop-color="#B0E8FA"/>
<stop offset="0.35" stop-color="#CDCAE6"/>
<stop offset="0.51" stop-color="#DDBCDC"/>
<stop offset="1" stop-color="#B0E6FA"/>
</linearGradient>
<linearGradient id="paint30_linear_798_3404" x1="227.254" y1="-504.239" x2="2356.97" y2="1483.26" gradientUnits="userSpaceOnUse">
<stop stop-color="#A7E5F9"/>
<stop offset="0.32" stop-color="#C4C8E5"/>
<stop offset="0.51" stop-color="#D9B5D8"/>
<stop offset="1" stop-color="#A7E3F9"/>
</linearGradient>
<linearGradient id="paint31_linear_798_3404" x1="225.442" y1="-510.861" x2="2368.78" y2="1475.45" gradientUnits="userSpaceOnUse">
<stop stop-color="#9EE3F9"/>
<stop offset="0.28" stop-color="#BBC6E5"/>
<stop offset="0.51" stop-color="#D6ADD5"/>
<stop offset="1" stop-color="#9EE0F9"/>
</linearGradient>
<linearGradient id="paint32_linear_798_3404" x1="223.419" y1="-517.653" x2="2380.92" y2="1467.15" gradientUnits="userSpaceOnUse">
<stop stop-color="#95E0F8"/>
<stop offset="0.26" stop-color="#B2C3E5"/>
<stop offset="0.51" stop-color="#D2A6D1"/>
<stop offset="1" stop-color="#95DDF8"/>
</linearGradient>
<linearGradient id="paint33_linear_798_3404" x1="221.449" y1="-524.615" x2="2392.54" y2="1458.76" gradientUnits="userSpaceOnUse">
<stop stop-color="#8DDDF8"/>
<stop offset="0.25" stop-color="#AAC0E4"/>
<stop offset="0.51" stop-color="#CE9ECD"/>
<stop offset="1" stop-color="#8DDBF8"/>
</linearGradient>
<linearGradient id="paint34_linear_798_3404" x1="219.226" y1="-531.568" x2="2404.69" y2="1450.28" gradientUnits="userSpaceOnUse">
<stop stop-color="#84DBF7"/>
<stop offset="0.23" stop-color="#A1BEE3"/>
<stop offset="0.51" stop-color="#CA97C9"/>
<stop offset="1" stop-color="#84D8F7"/>
</linearGradient>
<linearGradient id="paint35_linear_798_3404" x1="217.002" y1="-538.489" x2="2416.53" y2="1442.13" gradientUnits="userSpaceOnUse">
<stop stop-color="#7BD8F7"/>
<stop offset="0.22" stop-color="#98BBE3"/>
<stop offset="0.51" stop-color="#C78FC5"/>
<stop offset="1" stop-color="#7BD5F7"/>
</linearGradient>
<linearGradient id="paint36_linear_798_3404" x1="214.555" y1="-545.578" x2="2428.68" y2="1433.49" gradientUnits="userSpaceOnUse">
<stop stop-color="#72D6F6"/>
<stop offset="0.2" stop-color="#8FB9E2"/>
<stop offset="0.51" stop-color="#C388C1"/>
<stop offset="1" stop-color="#72D2F6"/>
</linearGradient>
<linearGradient id="paint37_linear_798_3404" x1="211.992" y1="-552.746" x2="2440.83" y2="1424.74" gradientUnits="userSpaceOnUse">
<stop stop-color="#6AD3F6"/>
<stop offset="0.2" stop-color="#87B5E2"/>
<stop offset="0.51" stop-color="#BF80BD"/>
<stop offset="1" stop-color="#6AD0F6"/>
</linearGradient>
<linearGradient id="paint38_linear_798_3404" x1="209.62" y1="-559.907" x2="2452.68" y2="1416.19" gradientUnits="userSpaceOnUse">
<stop stop-color="#61D0F5"/>
<stop offset="0.19" stop-color="#7EB3E1"/>
<stop offset="0.51" stop-color="#BB79B9"/>
<stop offset="1" stop-color="#61CDF5"/>
</linearGradient>
<linearGradient id="paint39_linear_798_3404" x1="207.178" y1="-567.263" x2="2464.85" y2="1407" gradientUnits="userSpaceOnUse">
<stop stop-color="#58CEF5"/>
<stop offset="0.17" stop-color="#75B1E1"/>
<stop offset="0.51" stop-color="#B871B6"/>
<stop offset="1" stop-color="#58CAF5"/>
</linearGradient>
<linearGradient id="paint40_linear_798_3404" x1="204.775" y1="-574.851" x2="2477.16" y2="1397.54" gradientUnits="userSpaceOnUse">
<stop stop-color="#4FCBF4"/>
<stop offset="0.17" stop-color="#6CAEE0"/>
<stop offset="0.51" stop-color="#B46AB2"/>
<stop offset="1" stop-color="#4FC7F4"/>
</linearGradient>
<linearGradient id="paint41_linear_798_3404" x1="202.17" y1="-582.184" x2="2488.72" y2="1388.44" gradientUnits="userSpaceOnUse">
<stop stop-color="#46C9F3"/>
<stop offset="0.16" stop-color="#63ACDF"/>
<stop offset="0.51" stop-color="#B063AE"/>
<stop offset="1" stop-color="#46C4F3"/>
</linearGradient>
<linearGradient id="paint42_linear_798_3404" x1="199.371" y1="-589.719" x2="2500.84" y2="1378.99" gradientUnits="userSpaceOnUse">
<stop stop-color="#3EC6F3"/>
<stop offset="0.15" stop-color="#5BA8DF"/>
<stop offset="0.49" stop-color="#A75FAC"/>
<stop offset="0.51" stop-color="#AC5BAA"/>
<stop offset="1" stop-color="#3EC2F3"/>
</linearGradient>
<linearGradient id="paint43_linear_798_3404" x1="196.465" y1="-597.319" x2="2512.97" y2="1369.45" gradientUnits="userSpaceOnUse">
<stop stop-color="#35C4F2"/>
<stop offset="0.15" stop-color="#52A7DE"/>
<stop offset="0.47" stop-color="#9E5EAC"/>
<stop offset="0.51" stop-color="#A954A6"/>
<stop offset="1" stop-color="#35BFF2"/>
</linearGradient>
<linearGradient id="paint44_linear_798_3404" x1="192.076" y1="-603.098" x2="2523.29" y2="1362.04" gradientUnits="userSpaceOnUse">
<stop stop-color="#2CC1F2"/>
<stop offset="0.14" stop-color="#49A4DE"/>
<stop offset="0.45" stop-color="#955BAC"/>
<stop offset="0.51" stop-color="#A54CA2"/>
<stop offset="1" stop-color="#2CBCF2"/>
</linearGradient>
<linearGradient id="paint45_linear_798_3404" x1="184.416" y1="-605.397" x2="2530.87" y2="1357.73" gradientUnits="userSpaceOnUse">
<stop stop-color="#23BEF1"/>
<stop offset="0.14" stop-color="#40A1DD"/>
<stop offset="0.43" stop-color="#8C58AB"/>
<stop offset="0.51" stop-color="#A1459E"/>
<stop offset="1" stop-color="#23B9F1"/>
</linearGradient>
<linearGradient id="paint46_linear_798_3404" x1="176.609" y1="-607.619" x2="2538.41" y2="1353.46" gradientUnits="userSpaceOnUse">
<stop stop-color="#1ABCF1"/>
<stop offset="0.13" stop-color="#379FDD"/>
<stop offset="0.42" stop-color="#8355AB"/>
<stop offset="0.51" stop-color="#9D3D9B"/>
<stop offset="1" stop-color="#1AB6F1"/>
</linearGradient>
<linearGradient id="paint47_linear_798_3404" x1="168.783" y1="-609.688" x2="2545.6" y2="1349.67" gradientUnits="userSpaceOnUse">
<stop stop-color="#12B9F0"/>
<stop offset="0.13" stop-color="#2F9CDC"/>
<stop offset="0.4" stop-color="#7B53AA"/>
<stop offset="0.51" stop-color="#9A3697"/>
<stop offset="1" stop-color="#12B4F0"/>
</linearGradient>
<linearGradient id="paint48_linear_798_3404" x1="160.663" y1="-611.762" x2="2553.04" y2="1345.48" gradientUnits="userSpaceOnUse">
<stop stop-color="#09B7F0"/>
<stop offset="0.12" stop-color="#269ADC"/>
<stop offset="0.39" stop-color="#7250AA"/>
<stop offset="0.51" stop-color="#962E93"/>
<stop offset="1" stop-color="#09B1F0"/>
</linearGradient>
<linearGradient id="paint49_linear_798_3404" x1="152.22" y1="-613.937" x2="2560.84" y2="1341.27" gradientUnits="userSpaceOnUse">
<stop stop-color="#00B4EF"/>
<stop offset="0.12" stop-color="#1D97DB"/>
<stop offset="0.38" stop-color="#694EA9"/>
<stop offset="0.51" stop-color="#92278F"/>
<stop offset="1" stop-color="#00AEEF"/>
</linearGradient>
<clipPath id="clip0_798_3404">
<rect width="1920" height="1040" fill="white"/>
</clipPath>
</defs>
</svg>

